<svg width="290" height="284" viewBox="0 0 290 284" fill="none" xmlns="http://www.w3.org/2000/svg">
<path fill-rule="evenodd" clip-rule="evenodd" d="M122.25 115.838C116.797 120.172 103.427 148.093 87.1924 155.752C82.9236 157.765 79.0273 157.86 80.6091 151.092C83.7041 137.848 108.155 127.773 112.965 107.815C92.8661 99.2064 77.9763 122.276 68.6811 130.156C64.6683 133.553 60.4723 130.761 61.9459 125.104C64.2582 116.225 75.104 110.213 83.1483 104.516C98.29 93.797 102.796 95.8867 119.821 99.4312C142.656 71.991 130.49 16.9314 131.354 0.68457H137.486C156.865 12.0903 157.198 71.6996 126.377 103.785C132.511 117.385 138.73 124.903 129.643 141.214C110.262 176.014 92.6975 171.922 99.7407 161.657C104.825 154.247 130.215 140.109 122.246 115.834L122.25 115.838Z" fill="black"/>
<path fill-rule="evenodd" clip-rule="evenodd" d="M141.76 206.914C176.054 242.301 208.081 217.044 175.032 176.741C145.866 141.169 102.502 166.401 141.76 206.914Z" fill="black"/>
<path fill-rule="evenodd" clip-rule="evenodd" d="M213.339 155.421C206.579 126.297 243.296 76.191 244.545 14.7084C244.588 12.5106 244.73 4.83462 244.389 0.686523H228.167C191.912 37.8653 190.228 101.244 178.304 135.03C158.19 192.007 219.55 182.168 213.341 155.421H213.339Z" fill="black"/>
<path fill-rule="evenodd" clip-rule="evenodd" d="M250.616 241.969C251.303 238.129 248.93 233.017 245.725 228.097C238.776 217.434 240.634 219.532 233.712 227.41C226.258 235.888 216.358 244.567 202.459 252.532C198.985 254.522 187.793 263.08 183.762 265.109C187.29 281.462 247.921 257.038 250.616 241.967V241.969Z" fill="black"/>
<path fill-rule="evenodd" clip-rule="evenodd" d="M289.42 188.179C287.565 187.638 285.478 187.069 283.461 186.537C265.089 181.706 221.941 213.756 267.512 235.725C270.269 237.29 279.556 242.572 286.828 246.352C287.779 246.847 288.639 247.282 289.42 247.653V188.179Z" fill="black"/>
<path fill-rule="evenodd" clip-rule="evenodd" d="M287.244 262.827C276.032 251.813 257.368 245.96 239.486 266.478C236.426 269.754 228.436 279.821 225.489 286.369H253.622C269.011 286.369 282.215 276.526 287.244 262.827Z" fill="black"/>
<path fill-rule="evenodd" clip-rule="evenodd" d="M178.308 54.4752C180.533 53.7343 188.163 45.2549 190.078 42.9821C193.77 38.5967 196.744 34.969 200.145 29.7948C203.65 24.4583 208.106 16.7636 211.407 9.43937C213.164 5.5452 213.433 2.71459 212.569 0.689453H155.066C155.347 1.76966 155.882 3.22868 156.623 5.1997C160.217 14.7572 173.823 51.9506 178.31 54.4773L178.308 54.4752Z" fill="black"/>
<path fill-rule="evenodd" clip-rule="evenodd" d="M253.536 52.5759C257.609 51.1543 271.842 42.4648 276.11 39.7465L287.587 32.1122L289.012 31.1652C286.581 14.9974 273.24 2.29508 256.789 0.833984C256.461 1.34391 256.259 1.89338 256.2 2.48032C254.525 19.2454 253.391 34.7576 253.536 52.5779V52.5759Z" fill="black"/>
<path fill-rule="evenodd" clip-rule="evenodd" d="M27.4197 38.6315C36.4048 40.846 44.1078 42.0074 54.2709 42.3883C53.9587 36.5231 49.1071 23.7354 46.9592 18.7319C44.2681 12.465 42.4906 8.73106 39.277 3.08024C38.7567 2.16238 38.1864 1.39436 37.5766 0.74707C22.7034 1.55879 10.178 11.5554 5.60327 25.1257C6.36296 33.1617 10.1822 34.3876 27.4218 38.6315H27.4197Z" fill="black"/>
<path fill-rule="evenodd" clip-rule="evenodd" d="M76.4318 33.8204C76.5026 34.0618 79.7286 41.1071 80.9566 42.5058C85.1838 47.322 92.0126 53.6284 95.5987 56.6276C98.8518 59.35 102.307 61.9787 105.693 64.0642C107.344 65.082 109.733 66.4432 111.777 67.0155C115.621 68.0937 116.227 66.924 116.468 63.1567C117.003 54.8044 119.49 21.9422 112.199 15.9667C107.641 12.2287 88.5972 20.8891 80.8067 26.7605C78.8586 28.2279 75.6867 31.2728 76.4297 33.8183L76.4318 33.8204Z" fill="black"/>
<path fill-rule="evenodd" clip-rule="evenodd" d="M76.3928 283.563C67.7179 275.968 56.1998 266.021 45.4664 261.873C37.1827 258.672 36.0609 261.852 32.4477 267.745C29.7336 272.169 27.0695 276.401 25.8645 281.898C25.75 282.418 25.6542 282.961 25.5876 283.521C29.8814 285.353 34.5998 286.368 39.545 286.368H79.1422C78.5512 285.596 77.6583 284.67 76.3928 283.563Z" fill="black"/>
<path fill-rule="evenodd" clip-rule="evenodd" d="M10.0436 85.7136C19.0328 78.5872 36.568 62.7919 37.8584 60.157C38.2206 57.0454 5.93502 18.547 4.70288 69.9809C4.70704 78.9681 2.92335 91.3561 10.0436 85.7136Z" fill="black"/>
<path fill-rule="evenodd" clip-rule="evenodd" d="M5.51401 237.123C5.57021 245.261 5.50361 253.438 5.48071 261.576C6.95221 266.099 9.29995 270.233 12.3283 273.775C14.9466 271.446 17.1486 268.823 19.4194 266.128C21.7692 263.335 24.3375 259.78 26.6707 256.254C30.5357 250.414 30.621 250.079 25.9173 245.567C24.7059 244.405 18.2163 239.491 12.7841 235.849C5.56188 231.006 5.46406 229.707 5.5161 237.123H5.51401Z" fill="black"/>
<path fill-rule="evenodd" clip-rule="evenodd" d="M77.0834 20.8609C88.6743 7.20942 80.2512 1.84791 69.6718 0.686523H59.8063C50.559 1.62104 44.0465 4.96158 53.5207 7.67147C67.2304 11.5948 62.2082 38.3732 77.0834 20.8629V20.8609Z" fill="black"/>
<path fill-rule="evenodd" clip-rule="evenodd" d="M217.844 286.37C217.95 277.672 211.904 275.106 201.955 275.911C198.489 276.19 193.694 277.739 190.707 279.622C187.102 281.897 186.361 283.71 186.911 286.37H217.846H217.844Z" fill="black"/>
<path fill-rule="evenodd" clip-rule="evenodd" d="M37.4291 218.396C39.2357 215.519 42.5117 218.714 48.637 215.935C53.576 213.694 50.9619 214.737 56.3691 214.535C64.9525 226.625 88.1718 232.459 93.0484 236.033C103.172 243.453 95.906 248.521 95.8665 248.569C85.464 262.056 52.4708 228.211 37.427 218.396H37.4291Z" fill="black"/>
<path fill-rule="evenodd" clip-rule="evenodd" d="M56.3735 214.536C41.3963 215.095 38.572 228.154 24.2441 231.186C7.17307 206.716 -11.9481 105.461 9.577 98.3828C14.8386 106.673 20.4124 179.134 56.3735 214.534V214.536Z" fill="black"/>
<path fill-rule="evenodd" clip-rule="evenodd" d="M129.148 267.293C143.028 278.593 169.588 265.333 186.955 255.378C236.931 226.728 235.256 188.902 253.709 184.182C264.193 181.493 272.52 181.468 280.773 168.507C289.864 154.227 288.648 130.075 277.703 111.764C259.316 81.0101 240.276 100.379 231.745 123.434C229.197 130.319 225.478 142.757 224.591 150.662C221.084 182.052 244.599 174.345 228.604 193.246C181.814 248.543 151.1 244.569 129.152 267.297L129.148 267.293Z" fill="black"/>
<path fill-rule="evenodd" clip-rule="evenodd" d="M53.5657 196.622C63.1127 191.873 90.2366 190.628 104.689 196.997C154.087 218.761 136.488 267.741 112.985 254.09C104.188 248.978 101.827 237.697 99.3548 230.294C91.502 206.783 74.4497 205.957 53.5657 196.622Z" fill="black"/>
<path fill-rule="evenodd" clip-rule="evenodd" d="M127.691 280.186C141.484 281.103 167.228 279.264 167.228 279.264C167.228 279.264 181.158 280.086 182.717 286.367H93.7051C64.1191 273.696 44.9459 251.64 76.1471 256.023C98.796 253.028 101.727 278.454 127.691 280.184V280.186Z" fill="black"/>
<path fill-rule="evenodd" clip-rule="evenodd" d="M289.414 115.869C278.204 94.0378 267.038 77.1332 245.823 79.5059C254.005 71.6864 270.784 56.7278 285.148 47.0018C286.744 45.9216 288.157 44.9579 289.412 44.1191V115.867L289.414 115.869Z" fill="black"/>
<path fill-rule="evenodd" clip-rule="evenodd" d="M55.7022 49.973C51.4418 60.7709 57.8626 52.7162 49.1148 58.0735C41.6574 62.6483 36.425 63.5578 35.5571 73.4213C33.0428 102.042 81.1339 126.757 87.0532 79.1533C90.0608 54.937 78.2534 52.4373 57.2029 53.8588C59.407 44.2119 61.557 35.1331 55.7022 49.973Z" fill="black"/>
<path fill-rule="evenodd" clip-rule="evenodd" d="M146.729 148.349C154.837 140.15 165.463 129.257 170.256 118.796C173.954 110.726 170.847 109.409 165.186 105.444C160.934 102.47 156.875 99.5518 151.461 98.0137C149.434 97.4351 147.032 97.1479 144.803 97.689C141.933 98.3863 142.899 102.961 142.705 106.254L140.674 140.847C140.337 146.594 138.022 157.155 146.731 148.351L146.729 148.349Z" fill="black"/>
<path fill-rule="evenodd" clip-rule="evenodd" d="M39.3207 165.189C49.3902 185.33 62.5088 183.644 62.5088 183.644C62.5088 183.644 75.7606 186.296 72.4804 165.688C70.1014 150.722 60.7875 143.949 55.8672 141.362C49.3423 137.93 42.5135 129.163 45.0527 121.308C47.7959 112.829 45.7999 106.098 43.3064 104.601C18.2327 89.5533 29.2492 145.048 39.3186 165.189H39.3207Z" fill="black"/>
<path fill-rule="evenodd" clip-rule="evenodd" d="M164.342 62.0557C165.722 94.6972 158.827 94.6972 158.827 94.6972C158.827 94.6972 167.102 99.2928 171.7 91.4774C176.299 83.664 164.344 62.0557 164.344 62.0557H164.342Z" fill="black"/>
</svg>
