<svg width="117" height="116" viewBox="0 0 117 116" fill="none" xmlns="http://www.w3.org/2000/svg">
<path fill-rule="evenodd" clip-rule="evenodd" d="M49.4206 46.7061C47.2162 48.4578 41.8111 59.7451 35.2483 62.8414C33.5226 63.6551 31.9475 63.6938 32.5869 60.9576C33.8381 55.6038 43.7227 51.5306 45.6672 43.4625C37.5419 39.9825 31.5226 49.3085 27.7649 52.494C26.1427 53.8671 24.4465 52.7388 25.0422 50.4519C25.977 46.8626 30.3615 44.4318 33.6134 42.1289C39.7346 37.7957 41.5562 38.6405 48.4387 40.0733C57.6697 28.9804 52.7517 6.72221 53.1009 0.154297H55.5796C63.4138 4.76513 63.5485 28.8626 51.0891 41.8335C53.5687 47.3312 56.0828 50.3703 52.4093 56.9643C44.5742 71.0324 37.4737 69.3782 40.321 65.2285C42.3765 62.2331 52.6407 56.5175 49.419 46.7044L49.4206 46.7061Z" fill="#F15A28"/>
<path fill-rule="evenodd" clip-rule="evenodd" d="M57.3075 83.5241C71.1711 97.8295 84.1184 87.6192 70.758 71.3264C58.9676 56.9462 41.4372 67.1464 57.3075 83.5241Z" fill="#004C30"/>
<path fill-rule="evenodd" clip-rule="evenodd" d="M86.244 62.7078C83.5112 50.9342 98.3542 30.6785 98.859 5.82374C98.8767 4.93523 98.9339 1.83217 98.7959 0.155273H92.2381C77.5819 15.1851 76.9012 40.8063 72.0809 54.4647C63.9497 77.4978 88.7547 73.5205 86.2449 62.7078H86.244Z" fill="#80B63D"/>
<path fill-rule="evenodd" clip-rule="evenodd" d="M101.314 97.6952C101.591 96.1429 100.632 94.0764 99.3363 92.0873C96.5269 87.7769 97.2782 88.625 94.4798 91.8097C91.4668 95.2367 87.4643 98.7453 81.8454 101.965C80.4412 102.77 75.917 106.229 74.2872 107.05C75.7134 113.661 100.224 103.787 101.314 97.6944V97.6952Z" fill="#86B845"/>
<path fill-rule="evenodd" clip-rule="evenodd" d="M117 75.9503C116.25 75.7315 115.406 75.5018 114.591 75.2864C107.164 73.3335 89.7213 86.2901 108.144 95.1711C109.258 95.8038 113.013 97.9392 115.952 99.4672C116.337 99.6675 116.684 99.8433 117 99.9931V75.9503Z" fill="#017D3A"/>
<path fill-rule="evenodd" clip-rule="evenodd" d="M116.12 106.127C111.588 101.674 104.043 99.3085 96.8138 107.603C95.5769 108.927 92.3468 112.997 91.1554 115.644H102.528C108.75 115.644 114.088 111.665 116.12 106.127Z" fill="#C50003"/>
<path fill-rule="evenodd" clip-rule="evenodd" d="M72.0824 21.8995C72.9819 21.6 76.0664 18.1722 76.8405 17.2534C78.3331 15.4805 79.5355 14.014 80.9103 11.9223C82.3272 9.76496 84.1286 6.65433 85.4631 3.69347C86.1732 2.11922 86.2817 0.974926 85.9326 0.15625H62.6866C62.8002 0.592933 63.0164 1.18275 63.316 1.97955C64.7691 5.84323 70.2692 20.8789 72.0833 21.9004L72.0824 21.8995Z" fill="#017D3A"/>
<path fill-rule="evenodd" clip-rule="evenodd" d="M102.494 21.1319C104.14 20.5572 109.894 17.0444 111.62 15.9455L116.259 12.8593L116.835 12.4765C115.853 5.94052 110.459 0.805502 103.809 0.214844C103.676 0.420985 103.594 0.643113 103.571 0.880386C102.894 7.65781 102.435 13.9287 102.494 21.1327V21.1319Z" fill="#017D3A"/>
<path fill-rule="evenodd" clip-rule="evenodd" d="M11.0846 15.4947C14.7169 16.39 17.8309 16.8595 21.9394 17.0134C21.8132 14.6424 19.8519 9.47288 18.9836 7.45017C17.8957 4.91673 17.1771 3.40727 15.878 1.12289C15.6677 0.751835 15.4371 0.441361 15.1906 0.179688C9.17802 0.507831 4.11453 4.54904 2.26515 10.0349C2.57226 13.2835 4.11621 13.7791 11.0855 15.4947H11.0846Z" fill="#C50003"/>
<path fill-rule="evenodd" clip-rule="evenodd" d="M30.898 13.5496C30.9266 13.6472 32.2308 16.4953 32.7272 17.0608C34.436 19.0077 37.1967 21.5572 38.6464 22.7696C39.9615 23.8702 41.3582 24.9328 42.7271 25.7759C43.3943 26.1873 44.3603 26.7376 45.1865 26.969C46.7406 27.4048 46.9854 26.932 47.083 25.4091C47.2992 22.0325 48.3047 8.7478 45.3573 6.33216C43.5147 4.82101 35.8159 8.32205 32.6666 10.6956C31.8791 11.2888 30.5968 12.5198 30.8972 13.5488L30.898 13.5496Z" fill="#004C30"/>
<path fill-rule="evenodd" clip-rule="evenodd" d="M30.8824 114.51C27.3754 111.44 22.7192 107.419 18.3801 105.742C15.0314 104.448 14.5779 105.733 13.1172 108.115C12.02 109.904 10.9431 111.615 10.4559 113.837C10.4096 114.047 10.3709 114.267 10.344 114.493C12.0798 115.234 13.9872 115.644 15.9864 115.644H31.9938C31.7549 115.332 31.3939 114.958 30.8824 114.51Z" fill="#F88C29"/>
<path fill-rule="evenodd" clip-rule="evenodd" d="M4.0602 34.5281C7.69417 31.6472 14.7829 25.2618 15.3046 24.1966C15.451 22.9387 2.39929 7.37549 1.90119 28.168C1.90287 31.8011 1.1818 36.8091 4.0602 34.5281Z" fill="#7FB53B"/>
<path fill-rule="evenodd" clip-rule="evenodd" d="M2.22893 95.736C2.25165 99.0259 2.22472 102.332 2.21547 105.622C2.81033 107.45 3.75942 109.121 4.98365 110.553C6.04212 109.611 6.93231 108.551 7.85027 107.462C8.8002 106.333 9.83847 104.895 10.7817 103.47C12.3441 101.109 12.3786 100.974 10.4771 99.1495C9.9874 98.6801 7.36394 96.6935 5.16791 95.2211C2.24828 93.2632 2.20874 92.7381 2.22977 95.736H2.22893Z" fill="#F0592A"/>
<path fill-rule="evenodd" clip-rule="evenodd" d="M31.1616 8.3109C35.8473 2.7922 32.4422 0.624771 28.1654 0.155273H24.1772C20.4389 0.533059 17.8062 1.8835 21.6362 2.97899C27.1784 4.56502 25.1481 15.3904 31.1616 8.31174V8.3109Z" fill="#7FB53B"/>
<path fill-rule="evenodd" clip-rule="evenodd" d="M88.0648 115.645C88.1077 112.129 85.6635 111.091 81.6416 111.417C80.2407 111.53 78.3021 112.156 77.0947 112.917C75.6375 113.837 75.3379 114.57 75.56 115.645H88.0656H88.0648Z" fill="#F25D31"/>
<path fill-rule="evenodd" clip-rule="evenodd" d="M15.131 88.1656C15.8613 87.0028 17.1857 88.2943 19.6619 87.1711C21.6585 86.2649 20.6017 86.6864 22.7877 86.6048C26.2576 91.4925 35.6441 93.8509 37.6155 95.2956C41.708 98.2951 38.7707 100.344 38.7547 100.363C34.5495 105.816 21.2117 92.1336 15.1302 88.1656H15.131Z" fill="#990539"/>
<path fill-rule="evenodd" clip-rule="evenodd" d="M22.7894 86.605C16.7348 86.8314 15.593 92.1103 9.80086 93.3362C2.89977 83.4439 -4.83009 42.511 3.87157 39.6494C5.99861 43.0007 8.25186 72.2938 22.7894 86.6042V86.605Z" fill="#F15A28"/>
<path fill-rule="evenodd" clip-rule="evenodd" d="M52.2089 107.933C57.8201 112.501 68.5571 107.14 75.5777 103.116C95.7812 91.5342 95.1039 76.2427 102.564 74.3344C106.802 73.2473 110.168 73.2372 113.504 67.9979C117.179 62.2251 116.688 52.4615 112.263 45.059C104.83 32.6265 97.1333 40.4566 93.6845 49.7767C92.6546 52.56 91.151 57.5882 90.7926 60.7838C89.3749 73.4737 98.8809 70.358 92.4148 77.9987C73.4995 100.353 61.0831 98.7466 52.2106 107.935L52.2089 107.933Z" fill="#F15A28"/>
<path fill-rule="evenodd" clip-rule="evenodd" d="M21.6544 79.3633C25.5138 77.4433 36.4788 76.9401 42.3215 79.5148C62.291 88.3132 55.1762 108.114 45.6753 102.595C42.1187 100.529 41.1646 95.9682 40.165 92.9754C36.9904 83.471 30.0969 83.137 21.6544 79.3633Z" fill="#86B845"/>
<path fill-rule="evenodd" clip-rule="evenodd" d="M51.6201 113.145C57.196 113.516 67.6031 112.772 67.6031 112.772C67.6031 112.772 73.2346 113.104 73.8648 115.643H37.881C25.9206 110.521 18.1697 101.605 30.783 103.377C39.939 102.166 41.1237 112.445 51.6201 113.144V113.145Z" fill="#004C30"/>
<path fill-rule="evenodd" clip-rule="evenodd" d="M116.998 46.7182C112.466 37.8929 107.952 31.0591 99.3756 32.0183C102.683 28.8571 109.466 22.81 115.273 18.8782C115.918 18.4415 116.49 18.052 116.997 17.7129V46.7174L116.998 46.7182Z" fill="#86B845"/>
<path fill-rule="evenodd" clip-rule="evenodd" d="M22.5179 20.0794C20.7956 24.4445 23.3913 21.1884 19.8549 23.3541C16.8402 25.2035 14.725 25.5712 14.3741 29.5585C13.3577 41.1285 32.7989 51.1201 35.1918 31.8757C36.4076 22.0861 31.6344 21.0756 23.1246 21.6503C24.0156 17.7504 24.8848 14.0803 22.5179 20.0794Z" fill="#F75438"/>
<path fill-rule="evenodd" clip-rule="evenodd" d="M59.3162 59.8487C62.5942 56.5345 66.8895 52.1306 68.8273 47.9018C70.3224 44.6397 69.0662 44.1071 66.7776 42.5043C65.0587 41.3019 63.418 40.1223 61.2295 39.5005C60.41 39.2666 59.439 39.1505 58.5379 39.3692C57.3776 39.6511 57.768 41.5005 57.6898 42.8316L56.8686 56.8163C56.7323 59.1394 55.7966 63.4087 59.317 59.8496L59.3162 59.8487Z" fill="#F88C29"/>
<path fill-rule="evenodd" clip-rule="evenodd" d="M15.8958 66.6565C19.9664 74.7986 25.2697 74.1171 25.2697 74.1171C25.2697 74.1171 30.6269 75.1891 29.3008 66.8584C28.3391 60.808 24.5739 58.0701 22.5848 57.0242C19.9471 55.6368 17.1865 52.0928 18.213 48.9174C19.3219 45.4896 18.515 42.7685 17.507 42.1635C7.3708 36.0803 11.8243 58.5143 15.8949 66.6565H15.8958Z" fill="#004C30"/>
<path fill-rule="evenodd" clip-rule="evenodd" d="M66.4365 24.9639C66.9943 38.1594 64.2068 38.1594 64.2068 38.1594C64.2068 38.1594 67.5522 40.0172 69.4108 36.8578C71.2703 33.6992 66.4373 24.9639 66.4373 24.9639H66.4365Z" fill="#339966"/>
</svg>
