<svg width="915" height="286" viewBox="0 0 915 286" fill="none" xmlns="http://www.w3.org/2000/svg">
<path d="M398.899 38.3975C406.612 38.3975 413.385 39.7144 418.841 42.1601C424.297 44.7939 428.624 47.9922 432.201 51.9429C435.775 55.8937 438.221 60.2207 439.914 64.924C441.419 69.6273 442.172 73.9543 442.172 78.0932V134.159H419.593V78.6576C419.593 75.2712 419.029 72.4493 417.9 70.0036C416.771 67.5578 415.266 65.6765 413.385 63.9833C411.504 62.2902 409.246 61.1614 406.8 60.4088C404.355 59.6563 401.721 59.2801 398.899 59.2801C396.077 59.2801 393.443 59.6563 390.997 60.4088C388.552 61.1614 386.294 62.2902 384.41 63.9833C382.529 65.6765 381.024 67.5578 379.895 70.0036C378.766 72.4493 378.202 75.2712 378.202 78.6576V134.159H355.624V78.0932C355.624 73.9543 356.376 69.6273 358.069 64.924C359.574 60.2207 362.02 55.8937 365.595 51.9429C369.169 47.9922 373.684 44.7939 379.142 42.1601C384.598 39.7144 391.183 38.3975 398.896 38.3975H398.899Z" fill="black"/>
<path d="M457.944 87.1267C457.944 79.7896 459.073 73.205 461.519 67.1823C463.776 61.3502 466.974 56.2706 471.301 51.9436C475.628 47.8047 480.711 44.6065 486.731 42.1608C492.751 39.9032 499.336 38.7744 506.675 38.7744C514.012 38.7744 520.597 39.9032 526.62 42.1608C532.452 44.6065 537.531 47.8047 541.858 51.9436C546.185 56.2706 549.384 61.3502 551.829 67.1823C554.087 73.2025 555.216 79.7871 555.216 87.1267C555.216 94.4638 554.087 101.048 551.829 107.071C549.384 113.091 546.185 118.171 541.858 122.5C537.531 126.827 532.449 130.026 526.62 132.283C520.599 134.729 514.015 135.858 506.675 135.858C499.338 135.858 492.751 134.729 486.731 132.283C480.711 130.026 475.628 126.827 471.301 122.5C466.974 118.173 463.776 113.091 461.519 107.071C459.073 101.051 457.944 94.4663 457.944 87.1267ZM480.522 87.3148C480.522 96.157 482.968 102.93 487.671 107.821C492.375 112.713 498.583 115.161 506.487 115.161C514.389 115.161 520.788 112.715 525.491 107.821C530.194 102.93 532.64 96.157 532.64 87.3148C532.64 78.4702 530.194 71.6974 525.491 66.806C520.788 61.9146 514.389 59.4689 506.487 59.4689C498.586 59.4689 492.377 61.9146 487.671 66.806C482.968 71.6974 480.522 78.4702 480.522 87.3148Z" fill="black"/>
<path d="M603.585 135.857C595.87 135.857 589.285 134.54 583.832 131.906C578.376 129.461 573.858 126.074 570.284 122.124C566.709 118.173 564.264 114.034 562.758 109.331C561.065 104.627 560.313 100.3 560.313 96.1614V40.0957H582.891V95.597C582.891 98.9834 583.455 101.805 584.584 104.251C585.713 106.697 587.218 108.578 589.099 110.271C590.981 111.964 593.238 113.093 595.686 113.846C598.132 114.598 600.766 114.975 603.588 114.975C606.41 114.975 609.044 114.598 611.489 113.846C613.935 113.093 616.193 111.964 618.074 110.271C619.955 108.578 621.46 106.697 622.589 104.251C623.718 101.805 624.282 98.9834 624.282 95.597V40.0957H646.861V96.1614C646.861 100.3 646.108 104.627 644.603 109.331C642.91 114.034 640.464 118.173 636.89 122.124C633.315 126.074 628.988 129.461 623.53 131.906C618.074 134.54 611.301 135.857 603.588 135.857H603.585Z" fill="black"/>
<path d="M658.883 81.4821C658.883 67.1816 663.022 56.4581 671.488 49.121C679.954 41.972 691.242 38.3975 705.542 38.3975V59.0919C698.017 59.0919 692.183 60.9732 687.856 64.5477C683.529 68.3104 681.459 73.9543 681.459 81.4796V134.159H658.881V81.4796L658.883 81.4821Z" fill="black"/>
<path d="M714.199 40.0899H736.777V134.163H714.199V40.0899ZM713.07 12.8083C713.07 9.42191 714.199 6.41181 716.645 3.9661C719.091 1.52039 721.912 0.391602 725.487 0.391602C729.061 0.391602 731.883 1.52039 734.332 3.9661C736.777 6.41181 737.906 9.42191 737.906 12.8083C737.906 16.3828 736.777 19.3954 734.332 21.8386C731.886 24.2843 729.064 25.4131 725.487 25.4131C721.912 25.4131 719.091 24.2843 716.645 21.8386C714.199 19.3929 713.07 16.3828 713.07 12.8083Z" fill="black"/>
<path d="M769.325 65.4917C769.325 67.7492 770.642 69.4424 773.087 70.7594C775.533 72.0763 778.731 73.2051 782.682 74.1457C786.445 75.2745 790.584 76.4033 794.911 77.5321C799.238 78.849 803.377 80.5422 807.327 82.6116C811.09 84.8692 814.288 87.8793 816.736 91.4538C819.182 95.0283 820.499 99.9197 820.499 105.754C820.499 110.458 819.558 114.785 817.865 118.359C815.984 122.122 813.35 125.32 810.149 127.766C806.951 130.211 803 132.093 798.673 133.41C794.158 134.727 789.264 135.291 783.808 135.291C778.729 135.291 774.214 134.727 770.263 133.786C766.124 132.845 762.547 131.528 759.351 130.023C756.153 128.706 753.331 127.013 751.074 125.32C748.628 123.627 746.747 122.31 745.241 120.993L757.282 103.306C761.233 107.069 765.748 109.893 770.451 111.775C775.154 113.656 779.67 114.597 784.373 114.597C788.324 114.597 791.522 113.844 794.156 112.527C796.601 111.21 797.918 109.329 797.918 106.507C797.918 103.685 796.601 101.615 794.156 100.11C791.71 98.7935 788.512 97.4765 784.747 96.3477C780.796 95.4071 776.657 94.2783 772.33 92.9614C768.003 91.8326 763.864 90.1394 760.101 88.07C756.151 86.0005 752.95 83.1785 750.507 79.604C748.061 76.2177 746.744 71.7025 746.744 65.8704C746.744 57.2164 749.754 50.4412 755.962 45.7379C761.983 41.0346 770.263 38.5889 780.986 38.5889C785.69 38.5889 789.829 38.9651 793.779 39.9058C797.73 40.8464 801.305 41.7871 804.503 43.104C807.701 44.4209 810.523 45.926 813.157 47.6192C815.791 49.3124 818.048 51.1937 820.118 52.8869L808.077 70.3856C802.998 66.2467 798.295 63.4247 793.591 61.7315C788.888 60.0384 784.561 59.2858 780.61 59.2858C777.036 59.2858 774.214 59.8502 772.33 60.979C770.26 62.1078 769.32 63.6129 769.32 65.4942L769.325 65.4917Z" fill="black"/>
<path d="M850.981 134.164H828.403V2.46191H850.981V134.164ZM874.688 38.3975C881.649 38.3975 887.858 39.7145 892.94 42.1602C898.019 44.794 902.158 47.9922 905.356 51.943C908.555 55.8938 911 60.2208 912.694 64.9241C914.199 69.6274 914.951 73.9544 914.951 78.0933V134.159H892.373V78.6577C892.373 75.2713 891.808 72.4493 890.68 70.0036C889.551 67.5579 888.046 65.6766 886.164 63.9834C884.283 62.2902 882.026 61.1614 879.58 60.4089C877.134 59.6564 874.5 59.2801 871.678 59.2801C868.856 59.2801 866.223 59.6564 863.777 60.4089C861.331 61.1614 859.074 62.2902 857.19 63.9834C855.308 65.6766 853.803 67.5579 852.675 70.0036C851.546 72.4493 850.981 75.2713 850.981 78.6577V134.159H828.403L835.928 81.8534C836.493 77.9026 837.433 73.1994 838.75 68.1198C839.879 63.0377 841.949 58.337 844.771 54.0074C847.592 49.6804 851.358 45.9178 856.058 42.9077C860.762 39.8976 866.97 38.3925 874.683 38.3925L874.688 38.3975Z" fill="black"/>
<path d="M355.623 146.93V231.785C355.623 239.31 356.94 246.083 359.574 252.103C362.02 258.123 365.594 263.203 369.921 267.342C374.248 271.481 379.516 274.679 385.536 276.748C391.556 279.006 397.953 280.135 404.916 280.135C412.065 280.135 418.65 279.006 424.484 276.56C430.316 274.303 435.208 271.105 439.535 266.778C443.862 262.45 447.06 257.371 449.506 251.539C451.763 245.707 452.892 239.122 452.892 231.785C452.892 224.448 451.763 217.861 449.506 211.841C447.06 205.82 443.862 200.738 439.723 196.411C435.584 192.084 430.693 188.886 424.858 186.44C419.026 184.183 412.818 183.054 406.042 183.054C399.27 183.054 393.438 184.183 388.734 186.252C384.031 188.322 380.454 190.956 378.196 193.777V146.928H355.618L355.623 146.93ZM430.316 231.597C430.316 240.439 428.059 247.212 423.356 252.106C418.652 256.997 412.253 259.443 404.352 259.443C396.45 259.443 390.051 256.997 385.35 252.106C380.647 247.214 378.199 240.439 378.199 231.597C378.199 222.755 380.645 215.982 385.35 211.088C390.054 206.197 396.45 203.751 404.352 203.751C412.253 203.751 418.652 206.197 423.356 211.088C428.059 215.98 430.316 222.755 430.316 231.597Z" fill="black"/>
<path d="M457.944 231.595C457.944 224.258 459.073 217.674 461.519 211.651C463.776 205.819 466.974 200.739 471.301 196.412C475.628 192.273 480.711 189.075 486.731 186.63C492.751 184.372 499.336 183.243 506.675 183.243C514.012 183.243 520.597 184.372 526.62 186.63C532.452 189.075 537.531 192.273 541.858 196.412C546.185 200.739 549.384 205.819 551.829 211.651C554.087 217.671 555.216 224.256 555.216 231.595C555.216 238.933 554.087 245.517 551.829 251.54C549.384 257.56 546.185 262.64 541.858 266.969C537.531 271.296 532.449 274.494 526.62 276.752C520.599 279.198 514.015 280.327 506.675 280.327C499.338 280.327 492.751 279.198 486.731 276.752C480.711 274.494 475.628 271.296 471.301 266.969C466.974 262.642 463.776 257.56 461.519 251.54C459.073 245.52 457.944 238.935 457.944 231.595ZM480.522 231.784C480.522 240.626 482.968 247.399 487.671 252.29C492.375 257.181 498.583 259.63 506.487 259.63C514.389 259.63 520.788 257.184 525.491 252.29C530.194 247.399 532.64 240.626 532.64 231.784C532.64 222.939 530.194 216.166 525.491 211.275C520.788 206.383 514.389 203.938 506.487 203.938C498.586 203.938 492.377 206.383 487.671 211.275C482.968 216.166 480.522 222.939 480.522 231.784Z" fill="black"/>
<path d="M551.875 184.56H577.839L596.279 212.406L614.716 184.56H640.68L609.636 231.595L640.68 278.633H614.716L596.279 250.787L577.839 278.633H551.875L582.919 231.595L551.875 184.56Z" fill="black"/>
<path fill-rule="evenodd" clip-rule="evenodd" d="M122.25 117.838C116.797 122.172 103.427 150.093 87.1924 157.752C82.9236 159.765 79.0273 159.86 80.6091 153.092C83.7041 139.848 108.155 129.773 112.965 109.815C92.8661 101.206 77.9763 124.276 68.6811 132.156C64.6683 135.553 60.4723 132.761 61.9459 127.104C64.2582 118.225 75.104 112.213 83.1483 106.516C98.29 95.797 102.796 97.8867 119.821 101.431C142.656 73.991 130.49 18.9314 131.354 2.68457H137.486C156.865 14.0903 157.198 73.6996 126.377 105.785C132.511 119.385 138.73 126.903 129.643 143.214C110.262 178.014 92.6975 173.922 99.7407 163.657C104.825 156.247 130.215 142.109 122.246 117.834L122.25 117.838Z" fill="black"/>
<path fill-rule="evenodd" clip-rule="evenodd" d="M141.76 208.914C176.054 244.301 208.081 219.044 175.032 178.741C145.866 143.169 102.502 168.401 141.76 208.914Z" fill="black"/>
<path fill-rule="evenodd" clip-rule="evenodd" d="M213.339 157.421C206.579 128.297 243.296 78.191 244.545 16.7084C244.588 14.5106 244.73 6.83462 244.389 2.68652H228.167C191.912 39.8653 190.228 103.244 178.304 137.03C158.19 194.007 219.55 184.168 213.341 157.421H213.339Z" fill="black"/>
<path fill-rule="evenodd" clip-rule="evenodd" d="M250.616 243.969C251.303 240.129 248.93 235.017 245.725 230.097C238.776 219.434 240.634 221.532 233.712 229.41C226.258 237.888 216.358 246.567 202.459 254.532C198.985 256.522 187.793 265.08 183.762 267.109C187.29 283.462 247.921 259.038 250.616 243.967V243.969Z" fill="black"/>
<path fill-rule="evenodd" clip-rule="evenodd" d="M289.42 190.179C287.565 189.638 285.478 189.069 283.461 188.537C265.089 183.706 221.941 215.756 267.512 237.725C270.269 239.29 279.556 244.572 286.828 248.352C287.779 248.847 288.639 249.282 289.42 249.653V190.179Z" fill="black"/>
<path fill-rule="evenodd" clip-rule="evenodd" d="M287.244 264.827C276.032 253.813 257.368 247.96 239.486 268.478C236.426 271.754 228.436 281.821 225.489 288.369H253.622C269.011 288.369 282.215 278.526 287.244 264.827Z" fill="black"/>
<path fill-rule="evenodd" clip-rule="evenodd" d="M178.308 56.4752C180.533 55.7343 188.163 47.2549 190.078 44.9821C193.77 40.5967 196.744 36.969 200.145 31.7948C203.65 26.4583 208.106 18.7636 211.407 11.4394C213.164 7.5452 213.433 4.71459 212.569 2.68945H155.066C155.347 3.76966 155.882 5.22868 156.623 7.1997C160.217 16.7572 173.823 53.9506 178.31 56.4773L178.308 56.4752Z" fill="black"/>
<path fill-rule="evenodd" clip-rule="evenodd" d="M253.536 54.5759C257.609 53.1543 271.842 44.4648 276.11 41.7465L287.587 34.1122L289.012 33.1652C286.581 16.9974 273.24 4.29508 256.789 2.83398C256.461 3.34391 256.259 3.89338 256.2 4.48032C254.525 21.2454 253.391 36.7576 253.536 54.5779V54.5759Z" fill="black"/>
<path fill-rule="evenodd" clip-rule="evenodd" d="M27.4197 40.6315C36.4048 42.846 44.1078 44.0074 54.2709 44.3883C53.9587 38.5231 49.1071 25.7354 46.9592 20.7319C44.2681 14.465 42.4906 10.7311 39.277 5.08024C38.7567 4.16238 38.1864 3.39436 37.5766 2.74707C22.7034 3.55879 10.178 13.5554 5.60327 27.1257C6.36296 35.1617 10.1822 36.3876 27.4218 40.6315H27.4197Z" fill="black"/>
<path fill-rule="evenodd" clip-rule="evenodd" d="M76.4318 35.8204C76.5026 36.0618 79.7286 43.1071 80.9566 44.5058C85.1838 49.322 92.0126 55.6284 95.5987 58.6276C98.8518 61.35 102.307 63.9787 105.693 66.0642C107.344 67.082 109.733 68.4432 111.777 69.0155C115.621 70.0937 116.227 68.924 116.468 65.1567C117.003 56.8044 119.49 23.9422 112.199 17.9667C107.641 14.2287 88.5972 22.8891 80.8067 28.7605C78.8586 30.2279 75.6867 33.2728 76.4297 35.8183L76.4318 35.8204Z" fill="black"/>
<path fill-rule="evenodd" clip-rule="evenodd" d="M76.3928 285.563C67.7179 277.968 56.1998 268.021 45.4664 263.873C37.1827 260.672 36.0609 263.852 32.4477 269.745C29.7336 274.169 27.0695 278.401 25.8645 283.898C25.75 284.418 25.6542 284.961 25.5876 285.521C29.8814 287.353 34.5998 288.368 39.545 288.368H79.1422C78.5512 287.596 77.6583 286.67 76.3928 285.563Z" fill="black"/>
<path fill-rule="evenodd" clip-rule="evenodd" d="M10.0436 87.7136C19.0328 80.5872 36.568 64.7919 37.8584 62.157C38.2206 59.0454 5.93502 20.547 4.70288 71.9809C4.70704 80.9681 2.92335 93.3561 10.0436 87.7136Z" fill="black"/>
<path fill-rule="evenodd" clip-rule="evenodd" d="M5.51401 239.123C5.57021 247.261 5.50361 255.438 5.48071 263.576C6.95221 268.099 9.29995 272.233 12.3283 275.775C14.9466 273.446 17.1486 270.823 19.4194 268.128C21.7692 265.335 24.3375 261.78 26.6707 258.254C30.5357 252.414 30.621 252.079 25.9173 247.567C24.7059 246.405 18.2163 241.491 12.7841 237.849C5.56188 233.006 5.46406 231.707 5.5161 239.123H5.51401Z" fill="black"/>
<path fill-rule="evenodd" clip-rule="evenodd" d="M77.0834 22.8609C88.6743 9.20942 80.2512 3.84791 69.6718 2.68652H59.8063C50.559 3.62104 44.0465 6.96158 53.5207 9.67147C67.2304 13.5948 62.2082 40.3732 77.0834 22.8629V22.8609Z" fill="black"/>
<path fill-rule="evenodd" clip-rule="evenodd" d="M217.844 288.37C217.95 279.672 211.904 277.106 201.955 277.911C198.489 278.19 193.694 279.739 190.707 281.622C187.102 283.897 186.361 285.71 186.911 288.37H217.846H217.844Z" fill="black"/>
<path fill-rule="evenodd" clip-rule="evenodd" d="M37.4291 220.396C39.2357 217.519 42.5117 220.714 48.637 217.935C53.576 215.694 50.9619 216.737 56.3691 216.535C64.9525 228.625 88.1718 234.459 93.0484 238.033C103.172 245.453 95.906 250.521 95.8665 250.569C85.464 264.056 52.4708 230.211 37.427 220.396H37.4291Z" fill="black"/>
<path fill-rule="evenodd" clip-rule="evenodd" d="M56.3735 216.536C41.3963 217.095 38.572 230.154 24.2441 233.186C7.17307 208.716 -11.9481 107.461 9.577 100.383C14.8386 108.673 20.4124 181.134 56.3735 216.534V216.536Z" fill="black"/>
<path fill-rule="evenodd" clip-rule="evenodd" d="M129.148 269.293C143.028 280.593 169.588 267.333 186.955 257.378C236.931 228.728 235.256 190.902 253.709 186.182C264.193 183.493 272.52 183.468 280.773 170.507C289.864 156.227 288.648 132.075 277.703 113.764C259.316 83.0101 240.276 102.379 231.745 125.434C229.197 132.319 225.478 144.757 224.591 152.662C221.084 184.052 244.599 176.345 228.604 195.246C181.814 250.543 151.1 246.569 129.152 269.297L129.148 269.293Z" fill="black"/>
<path fill-rule="evenodd" clip-rule="evenodd" d="M53.5657 198.622C63.1127 193.873 90.2366 192.628 104.689 198.997C154.087 220.761 136.488 269.741 112.985 256.09C104.188 250.978 101.827 239.697 99.3548 232.294C91.502 208.783 74.4497 207.957 53.5657 198.622Z" fill="black"/>
<path fill-rule="evenodd" clip-rule="evenodd" d="M127.691 282.186C141.484 283.103 167.228 281.264 167.228 281.264C167.228 281.264 181.158 282.086 182.717 288.367H93.7051C64.1191 275.696 44.9459 253.64 76.1471 258.023C98.796 255.028 101.727 280.454 127.691 282.184V282.186Z" fill="black"/>
<path fill-rule="evenodd" clip-rule="evenodd" d="M289.414 117.869C278.204 96.0378 267.038 79.1332 245.823 81.5059C254.005 73.6864 270.784 58.7278 285.148 49.0018C286.744 47.9216 288.157 46.9579 289.412 46.1191V117.867L289.414 117.869Z" fill="black"/>
<path fill-rule="evenodd" clip-rule="evenodd" d="M55.7022 51.973C51.4418 62.7709 57.8626 54.7162 49.1148 60.0735C41.6574 64.6483 36.425 65.5578 35.5571 75.4213C33.0428 104.042 81.1339 128.757 87.0532 81.1533C90.0608 56.937 78.2534 54.4373 57.2029 55.8588C59.407 46.2119 61.557 37.1331 55.7022 51.973Z" fill="black"/>
<path fill-rule="evenodd" clip-rule="evenodd" d="M146.729 150.349C154.837 142.15 165.463 131.257 170.256 120.796C173.954 112.726 170.847 111.409 165.186 107.444C160.934 104.47 156.875 101.552 151.461 100.014C149.434 99.4351 147.032 99.1479 144.803 99.689C141.933 100.386 142.899 104.961 142.705 108.254L140.674 142.847C140.337 148.594 138.022 159.155 146.731 150.351L146.729 150.349Z" fill="black"/>
<path fill-rule="evenodd" clip-rule="evenodd" d="M39.3207 167.189C49.3902 187.33 62.5088 185.644 62.5088 185.644C62.5088 185.644 75.7606 188.296 72.4804 167.688C70.1014 152.722 60.7875 145.949 55.8672 143.362C49.3423 139.93 42.5135 131.163 45.0527 123.308C47.7959 114.829 45.7999 108.098 43.3064 106.601C18.2327 91.5533 29.2492 147.048 39.3186 167.189H39.3207Z" fill="black"/>
<path fill-rule="evenodd" clip-rule="evenodd" d="M164.342 64.0557C165.722 96.6972 158.827 96.6972 158.827 96.6972C158.827 96.6972 167.102 101.293 171.7 93.4774C176.299 85.664 164.344 64.0557 164.344 64.0557H164.342Z" fill="black"/>
</svg>
