<svg width="392" height="127" viewBox="0 0 392 127" fill="none" xmlns="http://www.w3.org/2000/svg">
<g clip-path="url(#clip0_33_944)">
<path d="M161.258 26.4375C164.376 26.4375 167.114 26.9699 169.319 27.9586C171.525 29.0233 173.274 30.3162 174.72 31.9134C176.165 33.5105 177.154 35.2597 177.838 37.161C178.447 39.0624 178.751 40.8116 178.751 42.4848V65.1498H169.624V42.713C169.624 41.344 169.395 40.2032 168.939 39.2145C168.483 38.2258 167.874 37.4653 167.114 36.7808C166.353 36.0963 165.441 35.64 164.452 35.3358C163.463 35.0315 162.399 34.8794 161.258 34.8794C160.117 34.8794 159.052 35.0315 158.064 35.3358C157.075 35.64 156.162 36.0963 155.401 36.7808C154.64 37.4653 154.032 38.2258 153.575 39.2145C153.119 40.2032 152.891 41.344 152.891 42.713V65.1498H143.763V42.4848C143.763 40.8116 144.068 39.0624 144.752 37.161C145.361 35.2597 146.349 33.5105 147.794 31.9134C149.239 30.3162 151.065 29.0233 153.271 27.9586C155.477 26.9699 158.139 26.4375 161.257 26.4375H161.258Z" fill="#02261A"/>
<path d="M185.127 46.1366C185.127 43.1705 185.584 40.5087 186.572 38.0739C187.485 35.7163 188.778 33.6628 190.527 31.9136C192.276 30.2404 194.331 28.9475 196.765 27.9588C199.198 27.0462 201.86 26.5898 204.827 26.5898C207.793 26.5898 210.455 27.0462 212.89 27.9588C215.248 28.9475 217.301 30.2404 219.05 31.9136C220.799 33.6628 222.092 35.7163 223.081 38.0739C223.994 40.5076 224.45 43.1695 224.45 46.1366C224.45 49.1027 223.994 51.7646 223.081 54.1993C222.092 56.633 220.799 58.6865 219.05 60.4367C217.301 62.1859 215.247 63.4788 212.89 64.3915C210.456 65.3802 207.794 65.8365 204.827 65.8365C201.861 65.8365 199.198 65.3802 196.765 64.3915C194.331 63.4788 192.276 62.1859 190.527 60.4367C188.778 58.6875 187.485 56.633 186.572 54.1993C185.584 51.7656 185.127 49.1037 185.127 46.1366ZM194.255 46.2127C194.255 49.7872 195.243 52.5251 197.145 54.5025C199.046 56.4799 201.556 57.4696 204.751 57.4696C207.945 57.4696 210.532 56.4809 212.434 54.5025C214.335 52.5251 215.324 49.7872 215.324 46.2127C215.324 42.6371 214.335 39.8992 212.434 37.9218C210.532 35.9444 207.945 34.9557 204.751 34.9557C201.557 34.9557 199.047 35.9444 197.145 37.9218C195.243 39.8992 194.255 42.6371 194.255 46.2127Z" fill="#02261A"/>
<path d="M244.004 65.8363C240.885 65.8363 238.223 65.3039 236.018 64.2392C233.813 63.2505 231.987 61.8815 230.542 60.2844C229.097 58.6873 228.108 57.0141 227.499 55.1127C226.815 53.2114 226.511 51.4622 226.511 49.789V27.124H235.638V49.5608C235.638 50.9298 235.866 52.0706 236.323 53.0593C236.779 54.048 237.387 54.8085 238.148 55.493C238.908 56.1775 239.821 56.6338 240.811 56.938C241.799 57.2422 242.864 57.3943 244.005 57.3943C245.146 57.3943 246.211 57.2422 247.199 56.938C248.188 56.6338 249.101 56.1775 249.861 55.493C250.622 54.8085 251.23 54.048 251.686 53.0593C252.143 52.0706 252.371 50.9298 252.371 49.5608V27.124H261.498V49.789C261.498 51.4622 261.194 53.2114 260.586 55.1127C259.901 57.0141 258.913 58.6873 257.467 60.2844C256.022 61.8815 254.273 63.2505 252.067 64.2392C249.861 65.3039 247.123 65.8363 244.005 65.8363H244.004Z" fill="#02261A"/>
<path d="M266.359 43.8548C266.359 38.0737 268.032 33.7386 271.454 30.7726C274.877 27.8825 279.44 26.4375 285.221 26.4375V34.8034C282.179 34.8034 279.82 35.5639 278.071 37.0089C276.322 38.53 275.485 40.8116 275.485 43.8538V65.1498H266.358V43.8538L266.359 43.8548Z" fill="#02261A"/>
<path d="M288.72 27.1215H297.848V65.1514H288.72V27.1215ZM288.264 16.0928C288.264 14.7238 288.72 13.507 289.709 12.5183C290.698 11.5296 291.838 11.0732 293.284 11.0732C294.729 11.0732 295.869 11.5296 296.859 12.5183C297.848 13.507 298.304 14.7238 298.304 16.0928C298.304 17.5378 297.848 18.7557 296.859 19.7433C295.87 20.732 294.73 21.1884 293.284 21.1884C291.838 21.1884 290.698 20.732 289.709 19.7433C288.72 18.7546 288.264 17.5378 288.264 16.0928Z" fill="#02261A"/>
<path d="M311.005 37.3903C311.005 38.3029 311.538 38.9874 312.526 39.5198C313.515 40.0522 314.808 40.5085 316.405 40.8888C317.926 41.3451 319.599 41.8014 321.348 42.2577C323.098 42.7901 324.771 43.4746 326.368 44.3112C327.889 45.2238 329.182 46.4407 330.172 47.8857C331.16 49.3307 331.693 51.3081 331.693 53.6668C331.693 55.5681 331.312 57.3173 330.628 58.7624C329.867 60.2834 328.803 61.5763 327.509 62.565C326.216 63.5537 324.619 64.3143 322.87 64.8466C321.044 65.379 319.066 65.6072 316.86 65.6072C314.807 65.6072 312.982 65.379 311.384 64.9987C309.711 64.6185 308.265 64.0861 306.973 63.4777C305.68 62.9453 304.54 62.2608 303.627 61.5763C302.638 60.8919 301.878 60.3595 301.269 59.8271L306.137 52.6771C307.734 54.1981 309.559 55.34 311.46 56.1005C313.362 56.861 315.187 57.2413 317.088 57.2413C318.686 57.2413 319.978 56.9371 321.043 56.4047C322.032 55.8723 322.564 55.1118 322.564 53.971C322.564 52.8302 322.032 51.9936 321.043 51.3852C320.055 50.8528 318.762 50.3204 317.24 49.8641C315.642 49.4838 313.969 49.0275 312.22 48.4951C310.471 48.0388 308.798 47.3543 307.276 46.5177C305.679 45.6812 304.385 44.5403 303.398 43.0953C302.409 41.7264 301.877 39.9011 301.877 37.5434C301.877 34.045 303.094 31.306 305.603 29.4047C308.037 27.5033 311.384 26.5146 315.719 26.5146C317.621 26.5146 319.294 26.6668 320.891 27.047C322.488 27.4273 323.933 27.8076 325.226 28.3399C326.519 28.8723 327.66 29.4807 328.725 30.1652C329.789 30.8497 330.702 31.6102 331.539 32.2947L326.671 39.3687C324.618 37.6955 322.716 36.5547 320.815 35.8702C318.914 35.1858 317.164 34.8815 315.567 34.8815C314.122 34.8815 312.982 35.1097 312.22 35.566C311.383 36.0224 311.003 36.6308 311.003 37.3913L311.005 37.3903Z" fill="#02261A"/>
<path d="M344.015 65.1517H334.888V11.9102H344.015V65.1517ZM353.599 26.4374C356.413 26.4374 358.923 26.9698 360.977 27.9585C363.031 29.0232 364.704 30.3161 365.997 31.9132C367.29 33.5104 368.278 35.2596 368.963 37.1609C369.571 39.0623 369.876 40.8115 369.876 42.4847V65.1497H360.748V42.7128C360.748 41.3439 360.52 40.2031 360.064 39.2144C359.607 38.2257 358.999 37.4652 358.238 36.7807C357.478 36.0962 356.565 35.6399 355.576 35.3357C354.588 35.0314 353.523 34.8793 352.382 34.8793C351.241 34.8793 350.177 35.0314 349.188 35.3357C348.199 35.6399 347.287 36.0962 346.525 36.7807C345.765 37.4652 345.156 38.2257 344.7 39.2144C344.243 40.2031 344.015 41.3439 344.015 42.7128V65.1497H334.888L337.93 44.0047C338.158 42.4076 338.538 40.5063 339.071 38.4528C339.527 36.3984 340.364 34.4981 341.505 32.7478C342.645 30.9986 344.167 29.4775 346.068 28.2607C347.969 27.0438 350.479 26.4354 353.597 26.4354L353.599 26.4374Z" fill="#02261A"/>
<path d="M143.763 70.3125V104.616C143.763 107.658 144.296 110.396 145.361 112.829C146.349 115.263 147.794 117.317 149.543 118.99C151.293 120.663 153.422 121.956 155.856 122.793C158.29 123.705 160.875 124.161 163.69 124.161C166.58 124.161 169.242 123.705 171.601 122.716C173.959 121.804 175.936 120.511 177.685 118.762C179.435 117.012 180.727 114.959 181.716 112.601C182.629 110.244 183.085 107.582 183.085 104.616C183.085 101.65 182.629 98.9867 181.716 96.553C180.727 94.1193 179.435 92.0649 177.761 90.3156C176.088 88.5664 174.111 87.2735 171.752 86.2848C169.394 85.3722 166.885 84.9158 164.146 84.9158C161.408 84.9158 159.05 85.3722 157.149 86.2087C155.247 87.0453 153.801 88.1101 152.889 89.2509V70.3115H143.761L143.763 70.3125ZM173.959 104.54C173.959 108.114 173.046 110.852 171.145 112.831C169.243 114.808 166.657 115.797 163.462 115.797C160.268 115.797 157.681 114.808 155.781 112.831C153.88 110.853 152.89 108.114 152.89 104.54C152.89 100.965 153.879 98.2272 155.781 96.2488C157.682 94.2714 160.268 93.2827 163.462 93.2827C166.657 93.2827 169.243 94.2714 171.145 96.2488C173.046 98.2262 173.959 100.965 173.959 104.54Z" fill="#02261A"/>
<path d="M185.127 104.539C185.127 101.573 185.584 98.911 186.572 96.4763C187.485 94.1186 188.778 92.0652 190.527 90.3159C192.276 88.6428 194.331 87.3498 196.765 86.3612C199.198 85.4485 201.86 84.9922 204.827 84.9922C207.793 84.9922 210.455 85.4485 212.89 86.3612C215.248 87.3498 217.301 88.6428 219.05 90.3159C220.799 92.0652 222.092 94.1186 223.081 96.4763C223.994 98.91 224.45 101.572 224.45 104.539C224.45 107.505 223.994 110.167 223.081 112.602C222.092 115.035 220.799 117.089 219.05 118.839C217.301 120.588 215.247 121.881 212.89 122.794C210.456 123.783 207.794 124.239 204.827 124.239C201.861 124.239 199.198 123.783 196.765 122.794C194.331 121.881 192.276 120.588 190.527 118.839C188.778 117.09 187.485 115.035 186.572 112.602C185.584 110.168 185.127 107.506 185.127 104.539ZM194.255 104.615C194.255 108.19 195.243 110.927 197.145 112.905C199.046 114.882 201.556 115.872 204.751 115.872C207.945 115.872 210.532 114.883 212.434 112.905C214.335 110.927 215.324 108.19 215.324 104.615C215.324 101.039 214.335 98.3016 212.434 96.3242C210.532 94.3468 207.945 93.3581 204.751 93.3581C201.557 93.3581 199.047 94.3468 197.145 96.3242C195.243 98.3016 194.255 101.039 194.255 104.615Z" fill="#02261A"/>
<path d="M223.099 85.5244H233.596L241.05 96.7814L248.503 85.5244H259L246.45 104.539L259 123.554H248.503L241.05 112.297L233.596 123.554H223.099L235.649 104.539L223.099 85.5244Z" fill="#02261A"/>
<path fill-rule="evenodd" clip-rule="evenodd" d="M49.4207 58.5518C47.2162 60.3035 41.8111 71.5908 35.2483 74.6871C33.5226 75.5008 31.9475 75.5395 32.587 72.8033C33.8381 67.4495 43.7228 63.3763 45.6672 55.3082C37.5419 51.8282 31.5226 61.1542 27.765 64.3397C26.1428 65.7128 24.4465 64.5845 25.0422 62.2976C25.977 58.7083 30.3615 56.2775 33.6135 53.9746C39.7346 49.6414 41.5562 50.4862 48.4388 51.9191C57.6697 40.8261 52.7517 18.5679 53.1009 12H55.5797C63.4139 16.6108 63.5485 40.7083 51.0892 53.6792C53.5687 59.1769 56.0828 62.216 52.4093 68.81C44.5743 82.8781 37.4738 81.2239 40.321 77.0742C42.3766 74.0788 52.6407 68.3632 49.419 58.5501L49.4207 58.5518Z" fill="#F15A28"/>
<path fill-rule="evenodd" clip-rule="evenodd" d="M57.3075 95.3698C71.1711 109.675 84.1184 99.4649 70.758 83.1721C58.9675 68.7919 41.4372 78.9921 57.3075 95.3698Z" fill="#004C30"/>
<path fill-rule="evenodd" clip-rule="evenodd" d="M86.2441 74.5535C83.5112 62.7799 98.3542 42.5242 98.859 17.6694C98.8767 16.7809 98.9339 13.6779 98.7959 12.001H92.2381C77.5819 27.0308 76.9013 52.652 72.0809 66.3104C63.9497 89.3435 88.7548 85.3662 86.2449 74.5535H86.2441Z" fill="#80B63D"/>
<path fill-rule="evenodd" clip-rule="evenodd" d="M101.314 109.541C101.591 107.989 100.632 105.922 99.3363 103.933C96.5269 99.6226 97.2782 100.471 94.4798 103.655C91.4668 107.082 87.4643 110.591 81.8454 113.811C80.4412 114.615 75.917 118.075 74.2872 118.896C75.7134 125.506 100.224 115.633 101.314 109.54V109.541Z" fill="#86B845"/>
<path fill-rule="evenodd" clip-rule="evenodd" d="M117 87.796C116.25 87.5772 115.406 87.3475 114.591 87.1321C107.164 85.1792 89.7213 98.1359 108.144 107.017C109.258 107.649 113.013 109.785 115.953 111.313C116.337 111.513 116.685 111.689 117 111.839V87.796Z" fill="#017D3A"/>
<path fill-rule="evenodd" clip-rule="evenodd" d="M116.12 117.973C111.588 113.52 104.043 111.154 96.8138 119.449C95.5769 120.773 92.3468 124.843 91.1554 127.49H102.528C108.75 127.49 114.088 123.511 116.12 117.973Z" fill="#C50003"/>
<path fill-rule="evenodd" clip-rule="evenodd" d="M72.0824 33.7452C72.9818 33.4457 76.0664 30.0179 76.8405 29.0991C78.3331 27.3262 79.5354 25.8597 80.9103 23.768C82.3272 21.6107 84.1286 18.5 85.463 15.5392C86.1732 13.9649 86.2817 12.8206 85.9325 12.002H62.6866C62.8002 12.4386 63.0164 13.0285 63.3159 13.8253C64.769 17.6889 70.2692 32.7246 72.0832 33.7461L72.0824 33.7452Z" fill="#017D3A"/>
<path fill-rule="evenodd" clip-rule="evenodd" d="M102.494 32.9776C104.141 32.4029 109.894 28.8901 111.62 27.7912L116.259 24.705L116.835 24.3222C115.853 17.7862 110.459 12.6512 103.809 12.0605C103.676 12.2667 103.594 12.4888 103.571 12.7261C102.894 19.5035 102.435 25.7744 102.494 32.9784V32.9776Z" fill="#017D3A"/>
<path fill-rule="evenodd" clip-rule="evenodd" d="M11.0846 27.3404C14.7169 28.2357 17.8309 28.7052 21.9394 28.8591C21.8132 26.4881 19.8519 21.3186 18.9836 19.2959C17.8957 16.7624 17.1771 15.253 15.878 12.9686C15.6677 12.5975 15.4371 12.2871 15.1906 12.0254C9.17801 12.3535 4.11451 16.3947 2.26514 21.8806C2.57224 25.1292 4.1162 25.6248 11.0854 27.3404H11.0846Z" fill="#C50003"/>
<path fill-rule="evenodd" clip-rule="evenodd" d="M30.898 25.3953C30.9266 25.4929 32.2307 28.341 32.7272 28.9065C34.436 30.8534 37.1966 33.4029 38.6464 34.6153C39.9614 35.7159 41.3582 36.7785 42.7271 37.6216C43.3943 38.0331 44.3602 38.5833 45.1865 38.8147C46.7405 39.2505 46.9854 38.7777 47.083 37.2548C47.2992 33.8783 48.3047 20.5935 45.3573 18.1779C43.5146 16.6667 35.8159 20.1678 32.6666 22.5413C31.879 23.1345 30.5968 24.3655 30.8971 25.3945L30.898 25.3953Z" fill="#004C30"/>
<path fill-rule="evenodd" clip-rule="evenodd" d="M30.8824 126.356C27.3754 123.285 22.7192 119.264 18.3801 117.587C15.0314 116.293 14.5779 117.579 13.1172 119.961C12.02 121.75 10.9431 123.46 10.4559 125.682C10.4096 125.893 10.3709 126.112 10.344 126.339C12.0798 127.079 13.9872 127.49 15.9864 127.49H31.9938C31.7549 127.178 31.3939 126.803 30.8824 126.356Z" fill="#F88C29"/>
<path fill-rule="evenodd" clip-rule="evenodd" d="M4.06018 46.3738C7.69415 43.4929 14.7829 37.1075 15.3045 36.0423C15.4509 34.7844 2.39928 19.2212 1.90117 40.0137C1.90286 43.6468 1.18179 48.6548 4.06018 46.3738Z" fill="#7FB53B"/>
<path fill-rule="evenodd" clip-rule="evenodd" d="M2.22892 107.582C2.25163 110.872 2.22471 114.177 2.21545 117.467C2.81032 119.296 3.75941 120.967 4.98363 122.399C6.0421 121.457 6.93229 120.397 7.85025 119.307C8.80018 118.178 9.83846 116.741 10.7817 115.316C12.3441 112.955 12.3786 112.819 10.4771 110.995C9.98739 110.526 7.36393 108.539 5.1679 107.067C2.24827 105.109 2.20872 104.584 2.22976 107.582H2.22892Z" fill="#F0592A"/>
<path fill-rule="evenodd" clip-rule="evenodd" d="M31.1615 20.1566C35.8472 14.6379 32.4421 12.4705 28.1653 12.001H24.1771C20.4388 12.3788 17.8061 13.7292 21.6361 14.8247C27.1784 16.4107 25.1481 27.2361 31.1615 20.1574V20.1566Z" fill="#7FB53B"/>
<path fill-rule="evenodd" clip-rule="evenodd" d="M88.0648 127.491C88.1077 123.974 85.6635 122.937 81.6417 123.263C80.2407 123.375 78.3022 124.001 77.0948 124.763C75.6375 125.682 75.338 126.415 75.5601 127.491H88.0657H88.0648Z" fill="#F25D31"/>
<path fill-rule="evenodd" clip-rule="evenodd" d="M15.131 100.011C15.8613 98.8485 17.1856 100.14 19.6619 99.0168C21.6585 98.1106 20.6017 98.5321 22.7876 98.4505C26.2575 103.338 35.6441 105.697 37.6155 107.141C41.708 110.141 38.7707 112.19 38.7547 112.209C34.5494 117.661 21.2117 103.979 15.1301 100.011H15.131Z" fill="#990539"/>
<path fill-rule="evenodd" clip-rule="evenodd" d="M22.7894 98.4507C16.7348 98.6771 15.593 103.956 9.80086 105.182C2.89977 95.2896 -4.83009 54.3567 3.87157 51.4951C5.99861 54.8464 8.25186 84.1395 22.7894 98.4499V98.4507Z" fill="#F15A28"/>
<path fill-rule="evenodd" clip-rule="evenodd" d="M52.2089 119.779C57.8202 124.347 68.5572 118.986 75.5777 114.962C95.7812 103.38 95.1039 88.0884 102.564 86.1801C106.802 85.093 110.168 85.0829 113.504 79.8436C117.179 74.0708 116.688 64.3073 112.263 56.9047C104.83 44.4723 97.1333 52.3023 93.6845 61.6224C92.6546 64.4057 91.151 69.4339 90.7926 72.6295C89.3749 85.3194 98.8809 82.2037 92.4148 89.8444C73.4995 112.199 61.0831 110.592 52.2106 119.78L52.2089 119.779Z" fill="#F15A28"/>
<path fill-rule="evenodd" clip-rule="evenodd" d="M21.6544 91.209C25.5138 89.289 36.4788 88.7858 42.3214 91.3605C62.291 100.159 55.1762 119.959 45.6752 114.441C42.1187 112.374 41.1645 107.814 40.165 104.821C36.9904 95.3167 30.0969 94.9827 21.6544 91.209Z" fill="#86B845"/>
<path fill-rule="evenodd" clip-rule="evenodd" d="M51.6201 124.99C57.196 125.361 67.6032 124.618 67.6032 124.618C67.6032 124.618 73.2346 124.95 73.8648 127.489H37.881C25.9206 122.367 18.1697 113.451 30.783 115.223C39.9391 114.012 41.1237 124.29 51.6201 124.989V124.99Z" fill="#004C30"/>
<path fill-rule="evenodd" clip-rule="evenodd" d="M116.998 58.5639C112.466 49.7386 107.952 42.9048 99.3756 43.864C102.683 40.7028 109.466 34.6558 115.273 30.7239C115.918 30.2872 116.49 29.8977 116.997 29.5586V58.5631L116.998 58.5639Z" fill="#86B845"/>
<path fill-rule="evenodd" clip-rule="evenodd" d="M22.5179 31.9251C20.7956 36.2902 23.3913 33.0341 19.8549 35.1998C16.8402 37.0492 14.725 37.4169 14.3741 41.4042C13.3577 52.9742 32.7989 62.9658 35.1918 43.7214C36.4076 33.9318 31.6344 32.9213 23.1246 33.496C24.0156 29.5961 24.8848 25.926 22.5179 31.9251Z" fill="#F75438"/>
<path fill-rule="evenodd" clip-rule="evenodd" d="M59.3162 71.6944C62.5942 68.3802 66.8895 63.9763 68.8273 59.7475C70.3224 56.4854 69.0662 55.9528 66.7776 54.35C65.0587 53.1476 63.418 51.968 61.2295 51.3462C60.41 51.1123 59.439 50.9962 58.5379 51.2149C57.3776 51.4968 57.768 53.3462 57.6898 54.6773L56.8686 68.662C56.7323 70.9851 55.7966 75.2544 59.317 71.6953L59.3162 71.6944Z" fill="#F88C29"/>
<path fill-rule="evenodd" clip-rule="evenodd" d="M15.8958 78.5022C19.9664 86.6443 25.2697 85.9628 25.2697 85.9628C25.2697 85.9628 30.6268 87.0348 29.3008 78.7041C28.3391 72.6537 24.5739 69.9158 22.5848 68.8699C19.947 67.4825 17.1864 63.9385 18.2129 60.7631C19.3219 57.3353 18.515 54.6142 17.507 54.0092C7.37077 47.926 11.8243 70.36 15.8949 78.5022H15.8958Z" fill="#004C30"/>
<path fill-rule="evenodd" clip-rule="evenodd" d="M66.4365 36.8096C66.9943 50.0051 64.2068 50.0051 64.2068 50.0051C64.2068 50.0051 67.5522 51.8629 69.4108 48.7035C71.2703 45.5449 66.4373 36.8096 66.4373 36.8096H66.4365Z" fill="#339966"/>
</g>
<defs>
<clipPath id="clip0_33_944">
<rect width="392" height="126.533" fill="white"/>
</clipPath>
</defs>
</svg>
