<svg width="560" height="281" viewBox="0 0 560 281" fill="none" xmlns="http://www.w3.org/2000/svg">
<path d="M43.8988 38.3975C51.6122 38.3975 58.3849 39.7144 63.8407 42.1601C69.2966 44.7939 73.6236 47.9922 77.2006 51.9429C80.7751 55.8937 83.2208 60.2207 84.914 64.924C86.419 69.6273 87.1716 73.9543 87.1716 78.0932V134.159H64.5933V78.6576C64.5933 75.2712 64.0289 72.4493 62.9001 70.0036C61.7713 67.5578 60.2662 65.6765 58.3849 63.9833C56.5036 62.2902 54.246 61.1614 51.8003 60.4088C49.3546 59.6563 46.7208 59.2801 43.8988 59.2801C41.0768 59.2801 38.443 59.6563 35.9973 60.4088C33.5516 61.1614 31.294 62.2902 29.4102 63.9833C27.5289 65.6765 26.0238 67.5578 24.895 70.0036C23.7662 72.4493 23.2018 75.2712 23.2018 78.6576V134.159H0.623535V78.0932C0.623535 73.9543 1.37606 69.6273 3.06924 64.924C4.5743 60.2207 7.02001 55.8937 10.5945 51.9429C14.169 47.9922 18.6842 44.7939 24.1425 42.1601C29.5983 39.7144 36.1829 38.3975 43.8963 38.3975H43.8988Z" fill="black"/>
<path d="M102.944 87.1267C102.944 79.7896 104.073 73.205 106.519 67.1823C108.776 61.3502 111.974 56.2706 116.301 51.9436C120.628 47.8047 125.711 44.6065 131.731 42.1608C137.751 39.9032 144.336 38.7744 151.675 38.7744C159.012 38.7744 165.597 39.9032 171.62 42.1608C177.452 44.6065 182.531 47.8047 186.858 51.9436C191.185 56.2706 194.384 61.3502 196.829 67.1823C199.087 73.2025 200.216 79.7871 200.216 87.1267C200.216 94.4638 199.087 101.048 196.829 107.071C194.384 113.091 191.185 118.171 186.858 122.5C182.531 126.827 177.449 130.026 171.62 132.283C165.599 134.729 159.015 135.858 151.675 135.858C144.338 135.858 137.751 134.729 131.731 132.283C125.711 130.026 120.628 126.827 116.301 122.5C111.974 118.173 108.776 113.091 106.519 107.071C104.073 101.051 102.944 94.4663 102.944 87.1267ZM125.522 87.3148C125.522 96.157 127.968 102.93 132.671 107.821C137.375 112.713 143.583 115.161 151.487 115.161C159.389 115.161 165.788 112.715 170.491 107.821C175.194 102.93 177.64 96.157 177.64 87.3148C177.64 78.4702 175.194 71.6974 170.491 66.806C165.788 61.9146 159.389 59.4689 151.487 59.4689C143.586 59.4689 137.377 61.9146 132.671 66.806C127.968 71.6974 125.522 78.4702 125.522 87.3148Z" fill="black"/>
<path d="M248.585 135.857C240.87 135.857 234.285 134.54 228.832 131.906C223.376 129.461 218.858 126.074 215.284 122.124C211.709 118.173 209.264 114.034 207.758 109.331C206.065 104.627 205.313 100.3 205.313 96.1614V40.0957H227.891V95.597C227.891 98.9834 228.455 101.805 229.584 104.251C230.713 106.697 232.218 108.578 234.099 110.271C235.981 111.964 238.238 113.093 240.686 113.846C243.132 114.598 245.766 114.975 248.588 114.975C251.41 114.975 254.044 114.598 256.489 113.846C258.935 113.093 261.193 111.964 263.074 110.271C264.955 108.578 266.46 106.697 267.589 104.251C268.718 101.805 269.282 98.9834 269.282 95.597V40.0957H291.861V96.1614C291.861 100.3 291.108 104.627 289.603 109.331C287.91 114.034 285.464 118.173 281.89 122.124C278.315 126.074 273.988 129.461 268.53 131.906C263.074 134.54 256.301 135.857 248.588 135.857H248.585Z" fill="black"/>
<path d="M303.883 81.4821C303.883 67.1816 308.022 56.4581 316.488 49.121C324.954 41.972 336.242 38.3975 350.542 38.3975V59.0919C343.017 59.0919 337.183 60.9732 332.856 64.5477C328.529 68.3104 326.459 73.9543 326.459 81.4796V134.159H303.881V81.4796L303.883 81.4821Z" fill="black"/>
<path d="M359.199 40.0899H381.777V134.163H359.199V40.0899ZM358.07 12.8083C358.07 9.42191 359.199 6.41181 361.645 3.9661C364.091 1.52039 366.912 0.391602 370.487 0.391602C374.061 0.391602 376.883 1.52039 379.332 3.9661C381.777 6.41181 382.906 9.42191 382.906 12.8083C382.906 16.3828 381.777 19.3954 379.332 21.8386C376.886 24.2843 374.064 25.4131 370.487 25.4131C366.912 25.4131 364.091 24.2843 361.645 21.8386C359.199 19.3929 358.07 16.3828 358.07 12.8083Z" fill="black"/>
<path d="M414.325 65.4917C414.325 67.7492 415.642 69.4424 418.087 70.7594C420.533 72.0763 423.731 73.2051 427.682 74.1457C431.445 75.2745 435.584 76.4033 439.911 77.5321C444.238 78.849 448.377 80.5422 452.327 82.6116C456.09 84.8692 459.288 87.8793 461.736 91.4538C464.182 95.0283 465.499 99.9197 465.499 105.754C465.499 110.458 464.558 114.785 462.865 118.359C460.984 122.122 458.35 125.32 455.149 127.766C451.951 130.211 448 132.093 443.673 133.41C439.158 134.727 434.264 135.291 428.808 135.291C423.729 135.291 419.214 134.727 415.263 133.786C411.124 132.845 407.547 131.528 404.351 130.023C401.153 128.706 398.331 127.013 396.074 125.32C393.628 123.627 391.747 122.31 390.241 120.993L402.282 103.306C406.233 107.069 410.748 109.893 415.451 111.775C420.154 113.656 424.67 114.597 429.373 114.597C433.324 114.597 436.522 113.844 439.156 112.527C441.601 111.21 442.918 109.329 442.918 106.507C442.918 103.685 441.601 101.615 439.156 100.11C436.71 98.7935 433.512 97.4765 429.747 96.3477C425.796 95.4071 421.657 94.2783 417.33 92.9614C413.003 91.8326 408.864 90.1394 405.101 88.07C401.151 86.0005 397.95 83.1785 395.507 79.604C393.061 76.2177 391.744 71.7025 391.744 65.8704C391.744 57.2164 394.754 50.4412 400.962 45.7379C406.983 41.0346 415.263 38.5889 425.986 38.5889C430.69 38.5889 434.829 38.9651 438.779 39.9058C442.73 40.8464 446.305 41.7871 449.503 43.104C452.701 44.4209 455.523 45.926 458.157 47.6192C460.791 49.3124 463.048 51.1937 465.118 52.8869L453.077 70.3856C447.998 66.2467 443.295 63.4247 438.591 61.7315C433.888 60.0384 429.561 59.2858 425.61 59.2858C422.036 59.2858 419.214 59.8502 417.33 60.979C415.26 62.1078 414.32 63.6129 414.32 65.4942L414.325 65.4917Z" fill="black"/>
<path d="M495.981 134.164H473.403V2.46191H495.981V134.164ZM519.688 38.3975C526.649 38.3975 532.858 39.7145 537.94 42.1602C543.019 44.794 547.158 47.9922 550.356 51.943C553.555 55.8938 556 60.2208 557.694 64.9241C559.199 69.6274 559.951 73.9544 559.951 78.0933V134.159H537.373V78.6577C537.373 75.2713 536.808 72.4493 535.68 70.0036C534.551 67.5579 533.046 65.6766 531.164 63.9834C529.283 62.2902 527.026 61.1614 524.58 60.4089C522.134 59.6564 519.5 59.2801 516.678 59.2801C513.856 59.2801 511.223 59.6564 508.777 60.4089C506.331 61.1614 504.074 62.2902 502.19 63.9834C500.308 65.6766 498.803 67.5579 497.675 70.0036C496.546 72.4493 495.981 75.2713 495.981 78.6577V134.159H473.403L480.928 81.8534C481.493 77.9026 482.433 73.1994 483.75 68.1198C484.879 63.0377 486.949 58.337 489.771 54.0074C492.592 49.6804 496.358 45.9178 501.058 42.9077C505.762 39.8976 511.97 38.3925 519.683 38.3925L519.688 38.3975Z" fill="black"/>
<path d="M0.623186 146.93V231.785C0.623186 239.31 1.94011 246.083 4.57395 252.103C7.01966 258.123 10.5942 263.203 14.9212 267.342C19.2482 271.481 24.5159 274.679 30.5361 276.748C36.5563 279.006 42.9528 280.135 49.9161 280.135C57.0651 280.135 63.6497 279.006 69.4843 276.56C75.3164 274.303 80.2078 271.105 84.5348 266.778C88.8619 262.45 92.0601 257.371 94.5058 251.539C96.7634 245.707 97.8922 239.122 97.8922 231.785C97.8922 224.448 96.7634 217.861 94.5058 211.841C92.0601 205.82 88.8619 200.738 84.723 196.411C80.5841 192.084 75.6927 188.886 69.8581 186.44C64.026 184.183 57.8177 183.054 51.0424 183.054C44.2697 183.054 38.4376 184.183 33.7343 186.252C29.031 188.322 25.454 190.956 23.1965 193.777V146.928H0.618164L0.623186 146.93ZM75.3164 231.597C75.3164 240.439 73.0588 247.212 68.3555 252.106C63.6523 256.997 57.2533 259.443 49.3518 259.443C41.4502 259.443 35.0512 256.997 30.3505 252.106C25.6472 247.214 23.199 240.439 23.199 231.597C23.199 222.755 25.6447 215.982 30.3505 211.088C35.0538 206.197 41.4502 203.751 49.3518 203.751C57.2533 203.751 63.6523 206.197 68.3555 211.088C73.0588 215.98 75.3164 222.755 75.3164 231.597Z" fill="black"/>
<path d="M102.944 231.595C102.944 224.258 104.073 217.674 106.519 211.651C108.776 205.819 111.974 200.739 116.301 196.412C120.628 192.273 125.711 189.075 131.731 186.63C137.751 184.372 144.336 183.243 151.675 183.243C159.012 183.243 165.597 184.372 171.62 186.63C177.452 189.075 182.531 192.273 186.858 196.412C191.185 200.739 194.384 205.819 196.829 211.651C199.087 217.671 200.216 224.256 200.216 231.595C200.216 238.933 199.087 245.517 196.829 251.54C194.384 257.56 191.185 262.64 186.858 266.969C182.531 271.296 177.449 274.494 171.62 276.752C165.599 279.198 159.015 280.327 151.675 280.327C144.338 280.327 137.751 279.198 131.731 276.752C125.711 274.494 120.628 271.296 116.301 266.969C111.974 262.642 108.776 257.56 106.519 251.54C104.073 245.52 102.944 238.935 102.944 231.595ZM125.522 231.784C125.522 240.626 127.968 247.399 132.671 252.29C137.375 257.181 143.583 259.63 151.487 259.63C159.389 259.63 165.788 257.184 170.491 252.29C175.194 247.399 177.64 240.626 177.64 231.784C177.64 222.939 175.194 216.166 170.491 211.275C165.788 206.383 159.389 203.938 151.487 203.938C143.586 203.938 137.377 206.383 132.671 211.275C127.968 216.166 125.522 222.939 125.522 231.784Z" fill="black"/>
<path d="M196.875 184.56H222.839L241.279 212.406L259.716 184.56H285.68L254.636 231.595L285.68 278.633H259.716L241.279 250.787L222.839 278.633H196.875L227.919 231.595L196.875 184.56Z" fill="black"/>
</svg>
