<svg width="212" height="108" viewBox="0 0 212 108" fill="none" xmlns="http://www.w3.org/2000/svg">
<path d="M16.6109 14.5898C19.5727 14.5898 22.1731 15.0954 24.2679 16.0341C26.3627 17.0453 28.0244 18.2738 29.3962 19.7906C30.7688 21.3073 31.7075 22.969 32.3572 24.7748C32.9352 26.5805 33.2243 28.2414 33.2243 29.8306V51.3557H24.5569V30.048C24.5569 28.7478 24.3404 27.6642 23.9072 26.7255C23.4733 25.7859 22.8961 25.0638 22.174 24.4141C21.4518 23.7644 20.5847 23.3305 19.646 23.0415C18.7073 22.7524 17.6962 22.6075 16.6126 22.6075C15.5298 22.6075 14.5178 22.7516 13.5791 23.0415C12.6395 23.3305 11.7733 23.7636 11.0512 24.4141C10.329 25.0638 9.75097 25.7868 9.31785 26.7255C8.8839 27.6642 8.66735 28.7478 8.66735 30.048V51.3557H0V29.8306C0 28.2414 0.289024 26.5805 0.9387 24.7748C1.51675 22.969 2.45545 21.3082 3.8281 19.7906C5.20075 18.2738 6.93404 17.0461 9.02883 16.0341C11.1236 15.0954 13.6515 14.5898 16.6134 14.5898H16.6109Z" fill="#02261A"/>
<path d="M36.5492 33.2985C36.5492 30.4807 36.9831 27.9536 37.9218 25.6414C38.7889 23.4026 40.0166 21.4519 41.6775 19.791C43.3391 18.2018 45.289 16.9741 47.6003 16.0346C49.9117 15.1675 52.4396 14.7344 55.2565 14.7344C58.0735 14.7344 60.6014 15.1675 62.9136 16.0346C65.1524 16.9741 67.1031 18.2018 68.764 19.791C70.4248 21.4527 71.6525 23.4026 72.5921 25.6414C73.4591 27.9528 73.8923 30.4807 73.8923 33.2985C73.8923 36.1154 73.4591 38.6433 72.5921 40.9546C71.6525 43.266 70.4248 45.2167 68.764 46.8775C67.1023 48.5392 65.1524 49.7669 62.9136 50.634C60.6022 51.5735 58.0743 52.0066 55.2565 52.0066C52.4396 52.0066 49.9117 51.5735 47.6003 50.634C45.289 49.7669 43.3383 48.5392 41.6775 46.8775C40.0166 45.2167 38.7889 43.266 37.9218 40.9546C36.9823 38.6433 36.5492 36.1154 36.5492 33.2985ZM45.2165 33.3701C45.2165 36.7651 46.1561 39.3654 47.9618 41.2428C49.7676 43.1211 52.1514 44.0598 55.1849 44.0598C58.2184 44.0598 60.6738 43.1211 62.4796 41.2428C64.2854 39.3646 65.2249 36.7651 65.2249 33.3701C65.2249 29.9751 64.2854 27.3747 62.4796 25.4973C60.6738 23.6191 58.2176 22.6804 55.1849 22.6804C52.1514 22.6804 49.7676 23.6191 47.9618 25.4973C46.1561 27.3756 45.2165 29.9751 45.2165 33.3701Z" fill="#02261A"/>
<path d="M93.8287 52.0061C90.8677 52.0061 88.3398 51.5005 86.2442 50.4893C84.1494 49.5498 82.4161 48.2504 81.0434 46.7329C79.6708 45.2161 78.7321 43.6269 78.154 41.8212C77.5044 40.0154 77.2153 38.3545 77.2153 36.7653V15.2402H85.8827V36.5479C85.8827 37.8481 86.0992 38.9318 86.5332 39.8705C86.9663 40.81 87.5443 41.5321 88.2665 42.1818C88.9886 42.8315 89.8557 43.2654 90.7944 43.5545C91.7331 43.8435 92.7443 43.9884 93.8279 43.9884C94.9115 43.9884 95.9227 43.8443 96.8614 43.5545C97.8009 43.2654 98.6671 42.8323 99.3893 42.1818C100.111 41.5321 100.689 40.8092 101.123 39.8705C101.557 38.9318 101.772 37.8481 101.772 36.5479V15.2402H110.44V36.7653C110.44 38.3545 110.151 40.0154 109.573 41.8212C108.923 43.6269 107.983 45.2161 106.612 46.7329C105.239 48.2496 103.578 49.5498 101.483 50.4893C99.3885 51.5005 96.7881 52.0061 93.8262 52.0061H93.8287Z" fill="#02261A"/>
<path d="M113.689 31.1308C113.689 25.641 115.278 21.5239 118.528 18.707C121.779 15.9625 126.113 14.5898 131.602 14.5898V22.5351C128.712 22.5351 126.473 23.2572 124.812 24.6298C123.151 26.075 122.356 28.2414 122.356 31.1308V51.3549H113.689V31.1308Z" fill="#02261A"/>
<path d="M134.925 15.2407H143.593V51.3561H134.925V15.2407ZM134.491 4.76679C134.491 3.4666 134.925 2.31135 135.864 1.37265C136.803 0.433117 137.886 0 139.259 0C140.631 0 141.714 0.433117 142.654 1.37265C143.593 2.31135 144.026 3.46744 144.026 4.76679C144.026 6.13944 143.593 7.2947 142.654 8.23423C141.714 9.17293 140.631 9.60688 139.259 9.60688C137.886 9.60688 136.803 9.17293 135.864 8.23423C134.925 7.2947 134.491 6.13944 134.491 4.76679Z" fill="#02261A"/>
<path d="M156.089 24.991C156.089 25.858 156.595 26.5077 157.534 27.0133C158.474 27.5189 159.702 27.9528 161.218 28.3135C162.663 28.7466 164.252 29.1806 165.913 29.6137C167.574 30.1201 169.163 30.7698 170.681 31.5635C172.125 32.4306 173.353 33.5859 174.293 34.9585C175.232 36.3312 175.738 38.2094 175.738 40.4483C175.738 42.254 175.376 43.9149 174.727 45.2875C174.004 46.7326 172.992 47.9604 171.765 48.8991C170.537 49.8386 169.02 50.5607 167.359 51.0663C165.625 51.5719 163.747 51.7885 161.652 51.7885C159.702 51.7885 157.968 51.5719 156.451 51.2104C154.862 50.8489 153.49 50.3433 152.262 49.7653C151.034 49.2597 149.951 48.61 149.083 47.9595C148.144 47.3099 147.423 46.8043 146.845 46.2987L151.467 39.5087C152.984 40.9539 154.717 42.0366 156.523 42.7596C158.329 43.4818 160.062 43.8432 161.868 43.8432C163.385 43.8432 164.612 43.5542 165.624 43.0486C166.563 42.5431 167.069 41.8209 167.069 40.7373C167.069 39.6537 166.563 38.8591 165.624 38.2819C164.685 37.7763 163.457 37.2707 162.012 36.8367C160.495 36.4753 158.906 36.0421 157.244 35.5366C155.583 35.1026 153.994 34.4529 152.549 33.6583C151.033 32.8637 149.805 31.7801 148.865 30.4083C147.927 29.1081 147.421 27.3748 147.421 25.1351C147.421 21.8126 148.576 19.2122 150.96 17.4064C153.271 15.6007 156.45 14.6611 160.567 14.6611C162.373 14.6611 163.962 14.8052 165.479 15.1667C166.995 15.5282 168.368 15.8889 169.596 16.3944C170.823 16.9008 171.907 17.4781 172.918 18.1286C173.929 18.7782 174.797 19.5012 175.591 20.1509L170.968 26.8684C169.019 25.2792 167.212 24.1955 165.406 23.5459C163.6 22.8962 161.94 22.6063 160.423 22.6063C159.05 22.6063 157.967 22.8229 157.244 23.256C156.45 23.69 156.088 24.2672 156.088 24.9902L156.089 24.991Z" fill="#02261A"/>
<path d="M187.441 51.3574H178.773V0.795898H187.441V51.3574ZM196.542 14.5924C199.215 14.5924 201.598 15.0979 203.548 16.0366C205.498 17.0478 207.087 18.2764 208.316 19.7931C209.544 21.3098 210.483 22.9715 211.133 24.7773C211.711 26.583 212 28.2439 212 29.8331V51.3582H203.333V30.0505C203.333 28.7503 203.116 27.6667 202.683 26.728C202.249 25.7884 201.672 25.0663 200.95 24.4166C200.227 23.7669 199.36 23.333 198.422 23.044C197.483 22.755 196.472 22.61 195.388 22.61C194.305 22.61 193.293 22.7541 192.355 23.044C191.415 23.333 190.549 23.7661 189.827 24.4166C189.105 25.0663 188.527 25.7893 188.094 26.728C187.66 27.6667 187.443 28.7503 187.443 30.0505V51.3582H178.776L181.664 31.2782C181.881 29.7615 182.242 27.9557 182.748 26.005C183.182 24.0551 183.976 22.2485 185.059 20.5877C186.143 18.926 187.587 17.4817 189.393 16.3257C191.199 15.1696 193.582 14.5924 196.544 14.5924H196.542Z" fill="#02261A"/>
<path d="M0.000833732 56.2588V88.835C0.000833732 91.7244 0.506412 94.3248 1.51757 96.6362C2.45711 98.9475 3.82892 100.898 5.49059 102.487C7.15143 104.076 9.17459 105.303 11.4859 106.098C13.7973 106.965 16.2527 107.398 18.9256 107.398C21.6709 107.398 24.1988 106.964 26.4376 106.026C28.6765 105.159 30.5548 103.931 32.2156 102.269C33.8764 100.608 35.1042 98.6576 36.0437 96.4188C36.9108 94.1799 37.3439 91.6511 37.3439 88.8342C37.3439 86.0173 36.9099 83.4894 36.0437 81.178C35.1042 78.8667 33.8764 76.916 32.2872 75.2551C30.698 73.5943 28.8206 72.3666 26.5809 71.4271C24.342 70.56 21.9582 70.1269 19.3578 70.1269C16.7575 70.1269 14.5186 70.5608 12.7128 71.3546C10.9071 72.1492 9.53441 73.1604 8.66734 74.244V56.2588H0H0.000833732ZM28.6765 88.7626C28.6765 92.1567 27.8095 94.7571 26.0037 96.6353C24.1979 98.5135 21.7417 99.4523 18.709 99.4523C15.6755 99.4523 13.2192 98.5127 11.4135 96.6353C9.6077 94.7571 8.66818 92.1567 8.66818 88.7626C8.66818 85.3676 9.6077 82.7672 11.4135 80.889C13.2192 79.0108 15.6755 78.0721 18.709 78.0721C21.7425 78.0721 24.1979 79.0116 26.0037 80.889C27.8095 82.7672 28.6765 85.3676 28.6765 88.7626Z" fill="#02261A"/>
<path d="M40.3751 88.7604C40.3751 85.9426 40.8091 83.4155 41.7478 81.1034C42.6148 78.8645 43.8426 76.9138 45.5034 75.2529C47.1651 73.6637 49.1149 72.436 51.4263 71.4965C53.7376 70.6294 56.2655 70.1963 59.0825 70.1963C61.8994 70.1963 64.4273 70.6294 66.7395 71.4965C68.9784 72.436 70.9291 73.6637 72.5899 75.2529C74.2507 76.9146 75.4785 78.8645 76.418 81.1034C77.2851 83.4147 77.7182 85.9426 77.7182 88.7604C77.7182 91.5773 77.2851 94.1052 76.418 96.4165C75.4785 98.7279 74.2507 100.679 72.5899 102.339C70.9282 104.001 68.9784 105.229 66.7395 106.096C64.4281 107.035 61.9002 107.469 59.0825 107.469C56.2655 107.469 53.7376 107.035 51.4263 106.096C49.1149 105.229 47.1642 104.001 45.5034 102.339C43.8426 100.679 42.6148 98.7279 41.7478 96.4165C40.8082 94.1052 40.3751 91.5773 40.3751 88.7604ZM49.0425 88.832C49.0425 92.227 49.982 94.8273 51.7878 96.7047C53.5935 98.583 55.9773 99.5217 59.0108 99.5217C62.0443 99.5217 64.4998 98.583 66.3055 96.7047C68.1113 94.8265 69.0508 92.227 69.0508 88.832C69.0508 85.437 68.1113 82.8366 66.3055 80.9593C64.4998 79.081 62.0435 78.1423 59.0108 78.1423C55.9773 78.1423 53.5935 79.081 51.7878 80.9593C49.982 82.8375 49.0425 85.437 49.0425 88.832Z" fill="#02261A"/>
<path d="M76.7068 70.7031H86.6752L93.7533 81.3928L100.832 70.7031H110.8L98.8816 88.7608L110.8 106.818H100.832L93.7533 96.128L86.6752 106.818H76.7068L88.625 88.7608L76.7068 70.7031Z" fill="#02261A"/>
</svg>
