<svg width="1393" height="1404" viewBox="0 0 1393 1404" fill="none" xmlns="http://www.w3.org/2000/svg">
<mask id="path-1-inside-1_70_943" fill="white">
<path fill-rule="evenodd" clip-rule="evenodd" d="M572.324 563.65C545.439 585.014 479.508 722.622 399.46 760.376C378.408 770.309 359.199 770.764 366.989 737.416C382.265 672.145 502.821 622.483 526.534 524.111C427.41 481.685 354.012 595.365 308.164 634.22C288.385 650.97 267.694 637.201 274.952 609.323C286.352 565.568 339.838 535.923 379.51 507.854C454.162 455.022 476.392 465.334 560.335 482.786C671.163 349.66 614.771 84.6234 617.051 0H653.322C742.984 64.626 741.445 349.432 592.673 504.246C622.922 571.284 653.588 608.316 608.786 688.724C513.215 860.23 426.612 840.062 461.344 789.47C486.405 752.951 611.598 683.273 572.305 563.631L572.324 563.65Z"/>
<path fill-rule="evenodd" clip-rule="evenodd" d="M1215.23 283.042C1235.34 276.035 1309.95 202.027 1331 188.639L1387.58 151.018L1388.74 150.258C1370.33 64.6851 1293.82 0.0400683 1202.92 0.0400683H1088.45C1131.98 70.5533 1251.2 196.254 1215.22 283.061L1215.23 283.042Z"/>
<path fill-rule="evenodd" clip-rule="evenodd" d="M104.691 183.113C148.999 194.033 186.981 199.768 237.084 201.629C235.545 172.725 211.624 109.694 201.022 85.0251C187.76 54.127 178.982 35.7248 163.155 7.88413C161.73 5.37733 160.248 3.09843 158.67 1.02842C143.755 2.58567 129.353 5.89009 115.654 10.7138C60.4204 34.1485 18.411 83.183 4.76882 142.7C16.3399 160.609 43.2062 167.958 104.71 183.094L104.691 183.113Z"/>
<path fill-rule="evenodd" clip-rule="evenodd" d="M19.0382 415.179C63.3657 380.065 149.836 302.221 156.182 289.213C157.778 275.577 32.2434 124.239 0 268.626V420.933C4.12305 423.516 10.1651 422.187 19.0192 415.16L19.0382 415.179Z"/>
<path fill-rule="evenodd" clip-rule="evenodd" d="M349.623 95.5632C398.453 38.0778 375.235 10.427 334.898 0.0200341H240.011C209.363 6.9707 195.721 19.7706 233.437 30.5574C301.039 49.8901 276.282 181.877 349.623 95.5822V95.5632Z"/>
<path fill-rule="evenodd" clip-rule="evenodd" d="M1043.61 1403.97C1044.06 1361.22 1014.27 1348.59 965.267 1352.54C948.186 1353.91 924.531 1361.55 909.806 1370.85C892.079 1382.02 888.412 1390.93 891.072 1403.97H1043.62H1043.61Z"/>
<path fill-rule="evenodd" clip-rule="evenodd" d="M154.053 1069.11C162.946 1054.93 179.096 1070.69 209.306 1057C233.664 1045.94 220.763 1051.09 247.44 1050.1C289.753 1109.69 404.248 1138.45 428.302 1156.05C478.216 1192.63 442.401 1217.6 442.211 1217.83C390.91 1284.3 228.23 1117.5 154.053 1069.13V1069.11Z"/>
<path fill-rule="evenodd" clip-rule="evenodd" d="M247.459 1050.08C173.605 1052.83 159.678 1117.19 89.016 1132.14C56.9246 1086.16 23.3703 985.166 0 875.873V488.44C4.88305 483.331 10.4501 479.666 16.6822 477.615C42.6175 518.464 70.1298 875.607 247.44 1050.08H247.459Z"/>
<path fill-rule="evenodd" clip-rule="evenodd" d="M606.258 1310.08C674.697 1365.79 805.666 1300.42 891.3 1251.36C1137.73 1110.17 1129.47 923.753 1220.46 900.47C1272.16 887.214 1313.22 887.101 1353.9 823.196C1398.72 752.816 1392.73 633.781 1338.75 543.536C1248.09 391.97 1154.19 487.418 1112.14 601.041C1099.56 634.978 1081.23 696.28 1076.86 735.23C1059.57 889.949 1175.5 851.967 1096.63 945.099C865.915 1217.62 714.465 1198.04 606.239 1310.07L606.258 1310.08Z"/>
<path fill-rule="evenodd" clip-rule="evenodd" d="M745.568 1371.98C775.532 1375.87 858.562 1357.51 870.381 1404H440.919C438.069 1377.75 432.825 1341.99 430.925 1313.17C425.244 1226.34 507.99 1341.14 745.568 1371.98Z"/>
<path fill-rule="evenodd" clip-rule="evenodd" d="M1393 556.817C1338.91 452.633 1284 373.156 1181.66 384.589C1222.02 346.037 1304.74 272.334 1375.58 224.401L1393 212.626V556.836V556.817Z"/>
<path fill-rule="evenodd" clip-rule="evenodd" d="M192.32 912.13C205.145 924.018 213.049 911.504 230.15 903.318C248.447 894.545 265.984 887.727 270.962 892.228C276.301 897.051 248.903 910.877 239.156 927.608C230.321 942.705 233.418 953.872 246.547 965.533C285.611 1000.59 331.25 1036.03 377.819 1068.08C402.576 1085.08 435.656 1113.09 454.846 1112.29C465.448 1111.84 475.917 1099.53 482.339 1094.59C489.35 1089.18 503.126 1095.54 488.856 1111.53C481.579 1119.68 480.268 1130.01 484.163 1132.8C500.504 1144.46 510.707 1148.38 525.622 1155.56C594.935 1188.92 650.472 1202.08 667.268 1178.17C680.226 1159.73 683.97 1137.87 632.232 1084.57C584.351 1035.25 546.845 1001.06 487.431 934.976C481.902 928.899 475.176 921.891 470.236 918.435C454.979 907.743 424.655 926.658 413.977 939.344C403.279 952.03 397.921 935.983 404.077 926.411C410.215 916.84 435.58 898.856 437.746 887.879C439.304 880.036 435.58 875.953 431.134 870.597C410.804 846.137 394.957 830.811 329.388 743.073C248.447 634.768 58.2927 788.177 192.358 912.13H192.32Z"/>
<path fill-rule="evenodd" clip-rule="evenodd" d="M591.363 934.183C583.8 962.118 596.892 1016.55 649.18 1034.93C679.372 1045.55 664.19 1055.17 682.203 1088.71C708.537 1137.77 753.073 1136.91 777.128 1124.93C831.905 1097.64 824.457 1064.63 833.729 1057.85C855.978 1041.56 882.104 1064.08 914.461 1038.25C947.484 1011.89 932.834 983.141 954.019 969.772C969.904 959.745 1010.09 982.116 1032.47 943.203C1054.82 904.367 1013.93 882.148 1027.95 870.43C1040.32 860.08 1061.69 815.281 1028.54 782.787C1000.02 754.852 974.217 768.981 961.715 773.444C932.416 783.946 925.614 834.177 896.335 825.593C867.056 817.028 871.236 808.615 835.002 809.28C776.007 810.362 787.616 862.188 749.159 836.532C726.112 821.149 711.634 821.928 700.348 820.959C691.228 820.161 680.854 811.673 676.597 805.842C618.761 753.94 506.166 834.974 535.635 895.973C564.306 923.681 598.982 906.228 591.401 934.164L591.363 934.183Z"/>
<path fill-rule="evenodd" clip-rule="evenodd" d="M683.532 699.908C695.92 685.209 704.204 716.886 703.197 744.973C702.627 756.861 702.646 779.897 703.482 803.408C713.837 804.092 726.985 804.737 746.442 817.025C745.017 793.799 745.207 765.445 749.71 735.041C752.465 716.544 763.352 730.084 768.178 746.113C774.505 767.116 780.262 789.716 786.874 812.467C794.531 804.415 804.563 795.223 824.02 792.374C821.778 784.645 819.688 776.422 817.959 767.553C807.964 716.924 851.456 755.969 851.456 755.969L910.414 807.206C926.146 800.465 934.962 773.934 952.1 760.982C924.797 756.064 895.783 741.156 871.482 717.702C856.89 703.611 818.909 653.247 805.589 564.085C802.91 546.157 767.741 541.581 752.009 543.328C744.884 544.125 737.531 546.29 731.223 549.69C746.727 584.12 739.944 621.456 711.994 642.631C711.405 643.068 710.816 643.524 710.227 643.961C694.058 655.792 675.058 664.262 658.3 671.725C651.422 674.783 644.772 677.745 639.072 680.594C610.723 694.837 633.714 759.064 683.532 699.946V699.908Z"/>
<path fill-rule="evenodd" clip-rule="evenodd" d="M154.016 718.467C154.016 718.467 224.468 693.873 201.345 599.736C178.241 505.579 266.383 579.643 243.507 643.225C220.63 706.806 154.016 718.467 154.016 718.467Z"/>
<path fill-rule="evenodd" clip-rule="evenodd" d="M559.423 83.7473C536.357 152.266 499.876 175.435 520.529 180.012C554.578 187.571 573.179 197.446 574.984 223.197C578.442 272.365 529.079 307.061 466.208 301.972C403.336 296.882 350.041 249.025 346.525 205.517C343.295 165.598 366.628 141.347 392.43 145.791C400.277 147.139 408.276 149.342 416.484 151.051C471.661 164.174 445.688 90.546 457.202 39.8593C469.666 -15.0813 585.168 7.30895 559.442 83.7473H559.423Z"/>
<path fill-rule="evenodd" clip-rule="evenodd" d="M1175.98 282.322C1152.17 281.049 1135.78 300.743 1135.78 300.743C1135.78 300.743 1121.39 288.057 1102.66 283.689C1074.94 277.232 1056.49 296.071 1056.49 296.071C1054.21 271.991 1103.04 240.732 1133.91 278.656C1136.92 266.73 1157.83 257.121 1174.73 258.792C1171.97 225.919 1164.58 192.97 1151.6 161.141C1129.39 163.382 1116.79 183.721 1116.79 183.721C1116.79 183.721 1101.52 173.637 1083.3 171.985C1056.26 169.516 1041.4 189.722 1041.4 189.722C1036.01 167.199 1077.96 131.496 1112.08 163.135C1112.88 155.539 1123.25 143.536 1142.01 139.757C1127.51 110.644 1106.55 79.7269 1081 52.2851C1067.18 59.7295 1061.48 74.4474 1061.48 74.4474C1037.89 64.4202 1008.25 68.8261 997.283 91.5202C988.999 72.9471 1019.44 35.4211 1054.07 57.3936C1054.07 57.3936 1053.3 47.1385 1066.65 37.7001C1052.23 23.7987 1037.03 11.2837 1021.2 0.0601024H958.884C944.063 3.99122 933.841 14.3033 931.314 24.7103C931.314 24.7103 923.201 15.9555 930.06 0.0601024H765.632C848.758 35.4591 917.957 93.8751 949.117 175.593C1026.68 379.004 926.868 536.477 859.322 613.2C845.072 632.457 860.12 664.684 900.002 657.753C972.564 638.458 1024.95 598.007 1071.29 561.051C1107.69 531.995 1125.02 502.863 1128.57 471.908C1134.26 422.342 1072.16 413.948 1034.71 437.591C1076.76 392.697 1136.5 407.927 1146.17 438.598C1165.47 391.5 1176.99 337.509 1176 282.379L1175.98 282.322ZM1017.82 535.432C1008.49 535.432 1000.93 527.798 1000.93 518.379C1000.93 508.959 1008.49 501.325 1017.82 501.325C1027.15 501.325 1034.71 508.959 1034.71 518.379C1034.71 527.798 1027.15 535.432 1017.82 535.432Z"/>
<path fill-rule="evenodd" clip-rule="evenodd" d="M416.029 1403.98C400.829 1335.69 361.403 1275.07 303.833 1232.09C242.139 1185.96 166.955 1165.6 92.2083 1174.76C66.767 1177.87 47.9378 1196.79 43.8718 1220.39L17.7465 1213.02C10.1654 1210.88 3.0593 1217.81 4.95933 1225.5L14.1934 1262.8C16.0744 1270.51 25.5746 1273.17 31.2366 1267.64L47.3108 1251.96C57.3999 1277.18 83.8862 1293.77 111.664 1290.34C191.807 1280.54 268.359 1329.95 295.074 1404H416.01L416.029 1403.98Z"/>
<path fill-rule="evenodd" clip-rule="evenodd" d="M1355.53 1105.75C1346.01 1104.78 1339.02 1096.99 1339.89 1088.33C1340.77 1079.67 1349.2 1073.46 1358.72 1074.43C1368.24 1075.4 1375.23 1083.19 1374.34 1091.87C1373.49 1100.49 1365.03 1106.72 1355.53 1105.77V1105.75ZM1231.73 1401.8C1322.72 1387.82 1393 1308.72 1393 1214.01V918.536C1382.44 869.995 1353.61 886.783 1343.69 917.491C1324.56 961.854 1299.01 1053.92 1279.53 1105.8C1230.38 1236.8 1156.66 1305.04 1093.84 1354.17C1057.13 1382.88 1063.8 1404.7 1102.03 1403.3C1158.08 1401.25 1199.81 1401.23 1231.73 1401.8ZM1327.15 1341.31C1313.39 1356.94 1290.72 1359.5 1276.49 1347.05C1262.26 1334.55 1261.88 1311.74 1275.62 1296.09C1289.37 1280.44 1312.04 1277.9 1326.25 1290.38C1340.5 1302.85 1340.86 1325.64 1327.15 1341.31ZM1189.94 1373.41C1176.61 1372.04 1166.8 1361.12 1168.04 1349C1169.27 1336.89 1181.05 1328.19 1194.37 1329.52C1207.71 1330.9 1217.51 1341.79 1216.28 1353.9C1215.06 1366.02 1203.24 1374.73 1189.93 1373.39L1189.94 1373.41ZM1297.77 1169.27C1308.41 1163.33 1322.3 1168 1328.84 1179.68C1335.35 1191.4 1332.03 1205.66 1321.39 1211.6C1310.77 1217.53 1296.84 1212.86 1290.32 1201.18C1283.79 1189.48 1287.13 1175.2 1297.77 1169.27Z"/>
<path fill-rule="evenodd" clip-rule="evenodd" d="M915.962 449.991C924.93 438.749 910.908 407.983 907.374 400.425C903.308 391.727 873.743 351.239 878.93 344.706L878.949 344.687C884.231 338.211 909.692 359.082 916.513 352.112C916.665 351.998 916.779 351.846 916.874 351.732C922.745 344.383 906.614 324.139 897.798 319.144C888.81 314.035 859.227 290.316 863.236 282.15C863.369 281.922 863.502 281.694 863.692 281.466C866.143 278.409 872.66 280.612 879.367 282.644C886.074 284.638 892.952 286.442 896.126 282.454C896.335 282.188 896.506 281.922 896.677 281.618C902.434 271.553 890.102 252.049 880.032 243.845C869.962 235.622 831.335 207.535 835.8 195.798C836.142 194.944 836.579 194.203 837.054 193.595C839.866 190.082 844.844 191.012 850.145 191.582C855.427 192.133 861.051 192.342 865.041 187.328C865.364 186.91 865.687 186.455 865.991 185.999C874.389 172.686 856.396 150.79 846.364 142.624C836.275 134.439 782.105 100.198 774.049 87.9489C767.304 77.6558 742.775 18.7841 735.042 0.0400683H722.179C727.594 14.0933 754.289 84.6825 750.66 102.515C748.646 112.447 742.186 136.85 738.766 160.437C735.346 184.024 735.023 206.87 745.283 213.65C765.803 227.133 757.728 214.903 770.173 222.006C782.618 229.108 768.501 281.029 782.39 288.322C796.279 295.69 799.015 285.872 804.753 287.505C810.454 289.138 816.8 309.174 818.035 328.393C819.27 347.592 829.397 372.66 838.555 370.457C839.771 370.173 840.626 369.603 841.253 368.824C843.02 366.602 842.887 362.728 842.678 358.892C842.488 355.018 842.298 351.22 843.951 349.15C844.578 348.352 845.452 347.801 846.706 347.611C855.769 346.13 867.435 388.233 874.94 410.661C882.407 433.051 890.976 458.613 910.186 453.581C912.694 452.916 914.613 451.7 915.981 450.01L915.962 449.991Z"/>
<path fill-rule="evenodd" clip-rule="evenodd" d="M984.951 1271.19C985.882 1268.86 987.117 1266.62 988.713 1264.51C998.498 1251.4 1017.06 1248.73 1030.17 1258.51C1041.17 1266.73 1044.82 1281.11 1039.94 1293.24C1039.01 1295.58 1037.75 1297.84 1036.18 1299.93C1026.41 1313.03 1007.83 1315.73 994.717 1305.93C983.735 1297.7 980.068 1283.33 984.97 1271.19H984.951ZM1041.15 1226.51C1042.1 1224.19 1043.36 1221.93 1044.92 1219.82C1054.72 1206.72 1073.26 1204.04 1086.37 1213.82C1097.38 1222.02 1101.02 1236.42 1096.14 1248.55C1095.21 1250.89 1093.96 1253.13 1092.38 1255.22C1082.59 1268.32 1064.03 1271.02 1050.92 1261.22C1039.92 1253.02 1036.27 1238.62 1041.15 1226.49V1226.51ZM1090.63 1171.32C1091.56 1168.98 1092.83 1166.74 1094.39 1164.61C1104.2 1151.51 1122.74 1148.83 1135.85 1158.61C1146.85 1166.82 1150.52 1181.19 1145.62 1193.35C1144.69 1195.68 1143.43 1197.93 1141.85 1200.03C1132.07 1213.14 1113.51 1215.81 1100.4 1206.02C1089.41 1197.79 1085.75 1183.42 1090.63 1171.28V1171.32ZM1133.97 1113.34C1134.9 1111 1136.15 1108.74 1137.73 1106.64C1147.52 1093.55 1166.08 1090.87 1179.17 1100.65C1190.15 1108.88 1193.84 1123.25 1188.96 1135.39C1188.01 1137.72 1186.75 1139.98 1185.18 1142.07C1175.37 1155.16 1156.83 1157.87 1143.72 1148.07C1132.73 1139.85 1129.07 1125.47 1133.97 1113.34ZM1176.83 1055.97C1177.77 1053.63 1179.04 1051.39 1180.6 1049.26C1190.38 1036.18 1208.94 1033.5 1222.05 1043.26C1233.04 1051.49 1236.7 1065.86 1231.84 1078C1230.89 1080.33 1229.64 1082.57 1228.06 1084.7C1218.27 1097.8 1199.71 1100.46 1186.6 1090.7C1175.6 1082.5 1171.95 1068.1 1176.83 1055.97ZM1207.75 985.132C1207.65 985.379 1207.56 985.645 1207.44 985.892C1192.91 1022.03 1044.02 1200.09 996.313 1243.29C948.281 1286.8 906.423 1268.32 848.321 1321.63C890.862 1319.66 980.41 1339.07 1029.24 1326.27C1077.27 1313.67 1210.56 1156.28 1242.4 1077.09C1242.94 1075.78 1243.41 1074.54 1243.89 1073.29C1253.84 1046.55 1248.03 1018.9 1237.58 982.815C1223.12 932.926 1229.94 924.969 1207.73 985.151L1207.75 985.132Z"/>
<path fill-rule="evenodd" clip-rule="evenodd" d="M421.234 446.149C401.987 450.535 383.633 450.346 364.12 450.82C363.056 450.744 361.973 450.668 360.89 450.592H360.871C359.807 450.516 358.743 450.422 357.698 450.308H357.622C356.558 450.213 355.513 450.099 354.468 449.985H354.354C353.328 449.871 352.302 449.738 351.275 449.624C350.439 449.51 349.623 449.415 348.805 449.301L348.026 449.206C347.285 449.111 346.544 448.997 345.784 448.883L344.796 448.731C344.055 448.617 343.314 448.503 342.573 448.37L341.604 448.219C340.749 448.067 339.875 447.934 339.02 447.763L338.45 447.649C337.69 447.516 336.911 447.364 336.17 447.231L335.22 447.06C334.365 446.889 333.491 446.699 332.636 446.528L332.123 446.414C331.211 446.225 330.318 446.035 329.406 445.826L328.95 445.731C328.057 445.522 327.164 445.313 326.252 445.104L325.777 444.99C324.827 444.762 323.877 444.534 322.908 444.287L322.68 444.23C268.891 430.633 219.908 398.026 191.845 349.447V349.409L191.769 349.333V349.276L191.731 349.238V349.2L191.712 349.181L191.541 348.877L191.522 348.839V348.801L191.503 348.763L191.484 348.744C191.294 348.421 191.123 348.08 190.952 347.776L190.933 347.738L190.914 347.719V347.7H190.895V347.643H190.876L190.857 347.605L190.705 347.32L190.42 346.788V346.731C190.154 346.2 189.907 345.668 189.679 345.155V345.098L189.66 345.079V345.041L189.565 344.794L189.546 344.775L189.527 344.756V344.68L189.489 344.585L189.47 344.566V344.509L189.451 344.49V344.471C189.261 343.997 189.071 343.522 188.9 343.066V343.047L188.881 343.028V342.99L188.862 342.952V342.876L188.843 342.857V342.819L188.824 342.8V342.781C185.119 332.45 187.551 323.202 193.099 315.092C192.586 308.636 193.004 302.331 193.631 297.222L193.669 296.918L193.688 296.785L193.745 296.348L193.764 296.177L193.802 295.912L193.821 295.836L193.916 295.152V295.076L193.973 294.677L194.144 293.519V293.5L194.182 293.215V293.139L194.22 292.911L194.239 292.778L194.258 292.626L194.296 292.417L194.315 292.322L194.353 292.056V292.037L194.41 291.753V291.715L194.448 291.468L194.467 291.354L194.505 291.183L194.524 291.031L194.543 290.917L194.581 290.708V290.651L194.619 290.404C195.208 287.29 195.075 284.08 194.22 281.004C194.049 280.339 193.859 279.693 193.688 279.067C193.517 278.421 193.346 277.775 193.194 277.13L192.719 275.25C192.567 274.623 192.415 273.996 192.263 273.388L191.826 271.546C191.693 270.939 191.541 270.331 191.408 269.742C191.294 269.134 191.161 268.546 191.028 267.957L190.667 266.191L190.325 264.463C190.211 263.893 190.116 263.323 190.002 262.754L189.698 261.063L189.413 259.411L189.166 257.778L188.919 256.164C188.843 255.632 188.767 255.119 188.691 254.606L188.482 253.049L188.292 251.53L188.121 250.03L187.969 248.567L187.836 247.143L187.703 245.738L187.513 243.022L187.418 241.712L187.304 239.148L187.228 236.736L187.19 234.419V232.235L187.228 230.165L187.266 229.178L187.342 227.298L187.399 226.405L187.456 225.531L187.57 223.898L187.646 223.139L187.722 222.398L187.798 221.695L187.874 221.031L187.95 220.385L188.026 219.777L188.102 219.207L188.178 218.657L188.254 218.163L188.33 217.688L188.387 217.251L188.463 216.853L188.52 216.473L188.577 216.131L188.653 215.846L188.691 215.561L188.748 215.352L188.786 215.143L188.824 214.991L188.843 214.859L188.862 214.764V214.707L188.9 214.669H188.919V214.65L188.957 214.631H188.976L188.995 214.612L189.166 214.479H189.185V214.46L189.242 214.403L189.28 214.384L189.299 214.365V214.346L189.337 214.327L189.356 214.308H189.375V214.289L189.413 214.251L189.451 214.232V214.213L189.489 214.175H189.508L189.527 214.156H189.546L189.565 214.137H189.603L189.622 214.118L189.66 214.099H189.679L189.698 214.08L189.736 214.061L189.755 214.042H189.774V214.023H189.793V214.004H189.812L189.831 213.985H189.85L189.888 213.947H189.907L189.926 213.928H189.945L189.964 213.909H189.983L190.04 213.852L190.116 213.795L190.192 213.757C197.545 208.611 203.853 211.725 203.853 211.725C193.954 245.491 209.914 285.771 221.067 284.384C228.059 283.53 231.175 286.435 232.543 288.733C240.922 286.701 250.194 286.359 256.407 291.734C270.43 303.831 282.21 360.443 345.708 374.667C409.207 388.891 473.922 367.355 510.155 337.388C544.147 309.3 585.263 303.679 592.464 309.547C592.578 309.623 592.673 309.737 592.787 309.832C592.939 309.984 593.072 310.136 593.186 310.326V310.345C593.281 310.497 593.357 310.668 593.414 310.838C593.414 310.857 593.414 310.876 593.433 310.876C593.433 310.895 593.433 310.914 593.433 310.914C593.547 311.199 593.604 311.484 593.661 311.75C593.775 312.339 593.756 312.87 593.661 313.364V313.402C593.623 313.516 593.585 313.649 593.566 313.763V313.782L593.509 313.953C593.433 314.105 593.395 314.257 593.319 314.409L593.281 314.485V314.504L593.243 314.58L593.205 314.637V314.675L593.129 314.808L593.11 314.846L593.053 314.922L593.015 314.978V314.997L592.939 315.111L592.92 315.149H592.901L592.806 315.263L592.73 315.339L592.673 315.415L592.521 315.567V315.586L592.312 315.795L592.255 315.871L592.16 315.966L592.084 316.023L591.951 316.156V316.175L591.761 316.327L591.685 316.384L591.628 316.422L591.609 316.46L591.514 316.536L591.476 316.555L591.324 316.707L591.267 316.745L591.172 316.821C591.172 316.821 591.172 316.821 591.153 316.821L591.039 316.897L591.001 316.935L590.982 316.954L590.906 316.992L590.849 317.029L590.83 317.048L590.659 317.162L590.64 317.181L590.469 317.295L590.355 317.352L590.298 317.409H590.279L589.975 317.561L589.899 317.618L589.842 317.656L589.766 317.713L589.709 317.732L589.69 317.751L589.614 317.789L589.5 317.827L589.462 317.865L589.386 317.903L589.329 317.941H589.31L588.74 318.226L588.721 318.245L588.569 318.321L588.55 318.34L588.493 318.359L588.417 318.397L588.36 318.435L588.284 318.492L588.208 318.53H588.17L588.113 318.549L588.056 318.587L587.98 318.606H587.961L587.904 318.644L587.79 318.701L587.6 318.796L587.524 318.815L587.448 318.853L587.391 318.872L587.296 318.929L587.22 318.967H587.201L587.163 319.005L587.087 319.024L587.03 319.043L586.84 319.137L586.783 319.156L586.707 319.194L586.65 319.213H586.631L586.574 319.232L586.498 319.27L586.479 319.289H586.422L586.232 319.403V319.422H586.194V319.441H586.156L586.137 319.46H586.118L586.08 319.479V319.498H586.004L585.871 319.555L585.757 319.631C523.968 384.58 503.961 427.443 421.405 446.282L421.234 446.149Z"/>
<path fill-rule="evenodd" clip-rule="evenodd" d="M709.107 407.11C709.107 407.11 849.974 344.535 886.265 507.838C886.265 507.838 734.795 538.47 709.107 407.11Z"/>
<path fill-rule="evenodd" clip-rule="evenodd" d="M136.592 744.82C136.592 744.82 196.652 666.274 102.373 578.897C8.11301 491.52 159.716 509.276 180.768 596.312C201.82 683.366 136.592 744.82 136.592 744.82Z"/>
<path fill-rule="evenodd" clip-rule="evenodd" d="M67.6599 407.11C67.6599 407.11 208.527 344.535 244.837 507.838C244.837 507.838 93.3482 538.47 67.6599 407.11Z"/>
<path fill-rule="evenodd" clip-rule="evenodd" d="M54.6446 1346.22C54.6446 1346.22 189.223 1244.45 271.456 1403.99H188.976C137.201 1403.99 90.118 1382.89 55.8986 1348.88L54.6446 1346.22Z"/>
<path fill-rule="evenodd" clip-rule="evenodd" d="M0 1007.33C21.5842 1035.99 52.3646 1095.54 0 1157.76V1007.33Z"/>
<path fill-rule="evenodd" clip-rule="evenodd" d="M542.95 1201.99C564.382 1201.99 581.767 1217.43 581.767 1236.48C581.767 1255.53 564.382 1270.97 542.95 1270.97C521.518 1270.97 504.133 1255.53 504.133 1236.48C504.133 1217.43 521.518 1201.99 542.95 1201.99Z"/>
<path fill-rule="evenodd" clip-rule="evenodd" d="M1004.56 654.352C1025.99 654.352 1043.38 669.792 1043.38 688.84C1043.38 707.888 1025.99 723.327 1004.56 723.327C983.128 723.327 965.743 707.888 965.743 688.84C965.743 669.792 983.128 654.352 1004.56 654.352Z"/>
</mask>
<path fill-rule="evenodd" clip-rule="evenodd" d="M572.324 563.65C545.439 585.014 479.508 722.622 399.46 760.376C378.408 770.309 359.199 770.764 366.989 737.416C382.265 672.145 502.821 622.483 526.534 524.111C427.41 481.685 354.012 595.365 308.164 634.22C288.385 650.97 267.694 637.201 274.952 609.323C286.352 565.568 339.838 535.923 379.51 507.854C454.162 455.022 476.392 465.334 560.335 482.786C671.163 349.66 614.771 84.6234 617.051 0H653.322C742.984 64.626 741.445 349.432 592.673 504.246C622.922 571.284 653.588 608.316 608.786 688.724C513.215 860.23 426.612 840.062 461.344 789.47C486.405 752.951 611.598 683.273 572.305 563.631L572.324 563.65Z" stroke="white" stroke-width="10" mask="url(#path-1-inside-1_70_943)"/>
<path fill-rule="evenodd" clip-rule="evenodd" d="M1215.23 283.042C1235.34 276.035 1309.95 202.027 1331 188.639L1387.58 151.018L1388.74 150.258C1370.33 64.6851 1293.82 0.0400683 1202.92 0.0400683H1088.45C1131.98 70.5533 1251.2 196.254 1215.22 283.061L1215.23 283.042Z" stroke="white" stroke-width="10" mask="url(#path-1-inside-1_70_943)"/>
<path fill-rule="evenodd" clip-rule="evenodd" d="M104.691 183.113C148.999 194.033 186.981 199.768 237.084 201.629C235.545 172.725 211.624 109.694 201.022 85.0251C187.76 54.127 178.982 35.7248 163.155 7.88413C161.73 5.37733 160.248 3.09843 158.67 1.02842C143.755 2.58567 129.353 5.89009 115.654 10.7138C60.4204 34.1485 18.411 83.183 4.76882 142.7C16.3399 160.609 43.2062 167.958 104.71 183.094L104.691 183.113Z" stroke="white" stroke-width="10" mask="url(#path-1-inside-1_70_943)"/>
<path fill-rule="evenodd" clip-rule="evenodd" d="M19.0382 415.179C63.3657 380.065 149.836 302.221 156.182 289.213C157.778 275.577 32.2434 124.239 0 268.626V420.933C4.12305 423.516 10.1651 422.187 19.0192 415.16L19.0382 415.179Z" stroke="white" stroke-width="10" mask="url(#path-1-inside-1_70_943)"/>
<path fill-rule="evenodd" clip-rule="evenodd" d="M349.623 95.5632C398.453 38.0778 375.235 10.427 334.898 0.0200341H240.011C209.363 6.9707 195.721 19.7706 233.437 30.5574C301.039 49.8901 276.282 181.877 349.623 95.5822V95.5632Z" stroke="white" stroke-width="10" mask="url(#path-1-inside-1_70_943)"/>
<path fill-rule="evenodd" clip-rule="evenodd" d="M1043.61 1403.97C1044.06 1361.22 1014.27 1348.59 965.267 1352.54C948.186 1353.91 924.531 1361.55 909.806 1370.85C892.079 1382.02 888.412 1390.93 891.072 1403.97H1043.62H1043.61Z" stroke="white" stroke-width="10" mask="url(#path-1-inside-1_70_943)"/>
<path fill-rule="evenodd" clip-rule="evenodd" d="M154.053 1069.11C162.946 1054.93 179.096 1070.69 209.306 1057C233.664 1045.94 220.763 1051.09 247.44 1050.1C289.753 1109.69 404.248 1138.45 428.302 1156.05C478.216 1192.63 442.401 1217.6 442.211 1217.83C390.91 1284.3 228.23 1117.5 154.053 1069.13V1069.11Z" stroke="white" stroke-width="10" mask="url(#path-1-inside-1_70_943)"/>
<path fill-rule="evenodd" clip-rule="evenodd" d="M247.459 1050.08C173.605 1052.83 159.678 1117.19 89.016 1132.14C56.9246 1086.16 23.3703 985.166 0 875.873V488.44C4.88305 483.331 10.4501 479.666 16.6822 477.615C42.6175 518.464 70.1298 875.607 247.44 1050.08H247.459Z" stroke="white" stroke-width="10" mask="url(#path-1-inside-1_70_943)"/>
<path fill-rule="evenodd" clip-rule="evenodd" d="M606.258 1310.08C674.697 1365.79 805.666 1300.42 891.3 1251.36C1137.73 1110.17 1129.47 923.753 1220.46 900.47C1272.16 887.214 1313.22 887.101 1353.9 823.196C1398.72 752.816 1392.73 633.781 1338.75 543.536C1248.09 391.97 1154.19 487.418 1112.14 601.041C1099.56 634.978 1081.23 696.28 1076.86 735.23C1059.57 889.949 1175.5 851.967 1096.63 945.099C865.915 1217.62 714.465 1198.04 606.239 1310.07L606.258 1310.08Z" stroke="white" stroke-width="10" mask="url(#path-1-inside-1_70_943)"/>
<path fill-rule="evenodd" clip-rule="evenodd" d="M745.568 1371.98C775.532 1375.87 858.562 1357.51 870.381 1404H440.919C438.069 1377.75 432.825 1341.99 430.925 1313.17C425.244 1226.34 507.99 1341.14 745.568 1371.98Z" stroke="white" stroke-width="10" mask="url(#path-1-inside-1_70_943)"/>
<path fill-rule="evenodd" clip-rule="evenodd" d="M1393 556.817C1338.91 452.633 1284 373.156 1181.66 384.589C1222.02 346.037 1304.74 272.334 1375.58 224.401L1393 212.626V556.836V556.817Z" stroke="white" stroke-width="10" mask="url(#path-1-inside-1_70_943)"/>
<path fill-rule="evenodd" clip-rule="evenodd" d="M192.32 912.13C205.145 924.018 213.049 911.504 230.15 903.318C248.447 894.545 265.984 887.727 270.962 892.228C276.301 897.051 248.903 910.877 239.156 927.608C230.321 942.705 233.418 953.872 246.547 965.533C285.611 1000.59 331.25 1036.03 377.819 1068.08C402.576 1085.08 435.656 1113.09 454.846 1112.29C465.448 1111.84 475.917 1099.53 482.339 1094.59C489.35 1089.18 503.126 1095.54 488.856 1111.53C481.579 1119.68 480.268 1130.01 484.163 1132.8C500.504 1144.46 510.707 1148.38 525.622 1155.56C594.935 1188.92 650.472 1202.08 667.268 1178.17C680.226 1159.73 683.97 1137.87 632.232 1084.57C584.351 1035.25 546.845 1001.06 487.431 934.976C481.902 928.899 475.176 921.891 470.236 918.435C454.979 907.743 424.655 926.658 413.977 939.344C403.279 952.03 397.921 935.983 404.077 926.411C410.215 916.84 435.58 898.856 437.746 887.879C439.304 880.036 435.58 875.953 431.134 870.597C410.804 846.137 394.957 830.811 329.388 743.073C248.447 634.768 58.2927 788.177 192.358 912.13H192.32Z" stroke="white" stroke-width="10" mask="url(#path-1-inside-1_70_943)"/>
<path fill-rule="evenodd" clip-rule="evenodd" d="M591.363 934.183C583.8 962.118 596.892 1016.55 649.18 1034.93C679.372 1045.55 664.19 1055.17 682.203 1088.71C708.537 1137.77 753.073 1136.91 777.128 1124.93C831.905 1097.64 824.457 1064.63 833.729 1057.85C855.978 1041.56 882.104 1064.08 914.461 1038.25C947.484 1011.89 932.834 983.141 954.019 969.772C969.904 959.745 1010.09 982.116 1032.47 943.203C1054.82 904.367 1013.93 882.148 1027.95 870.43C1040.32 860.08 1061.69 815.281 1028.54 782.787C1000.02 754.852 974.217 768.981 961.715 773.444C932.416 783.946 925.614 834.177 896.335 825.593C867.056 817.028 871.236 808.615 835.002 809.28C776.007 810.362 787.616 862.188 749.159 836.532C726.112 821.149 711.634 821.928 700.348 820.959C691.228 820.161 680.854 811.673 676.597 805.842C618.761 753.94 506.166 834.974 535.635 895.973C564.306 923.681 598.982 906.228 591.401 934.164L591.363 934.183Z" stroke="white" stroke-width="10" mask="url(#path-1-inside-1_70_943)"/>
<path fill-rule="evenodd" clip-rule="evenodd" d="M683.532 699.908C695.92 685.209 704.204 716.886 703.197 744.973C702.627 756.861 702.646 779.897 703.482 803.408C713.837 804.092 726.985 804.737 746.442 817.025C745.017 793.799 745.207 765.445 749.71 735.041C752.465 716.544 763.352 730.084 768.178 746.113C774.505 767.116 780.262 789.716 786.874 812.467C794.531 804.415 804.563 795.223 824.02 792.374C821.778 784.645 819.688 776.422 817.959 767.553C807.964 716.924 851.456 755.969 851.456 755.969L910.414 807.206C926.146 800.465 934.962 773.934 952.1 760.982C924.797 756.064 895.783 741.156 871.482 717.702C856.89 703.611 818.909 653.247 805.589 564.085C802.91 546.157 767.741 541.581 752.009 543.328C744.884 544.125 737.531 546.29 731.223 549.69C746.727 584.12 739.944 621.456 711.994 642.631C711.405 643.068 710.816 643.524 710.227 643.961C694.058 655.792 675.058 664.262 658.3 671.725C651.422 674.783 644.772 677.745 639.072 680.594C610.723 694.837 633.714 759.064 683.532 699.946V699.908Z" stroke="white" stroke-width="10" mask="url(#path-1-inside-1_70_943)"/>
<path fill-rule="evenodd" clip-rule="evenodd" d="M154.016 718.467C154.016 718.467 224.468 693.873 201.345 599.736C178.241 505.579 266.383 579.643 243.507 643.225C220.63 706.806 154.016 718.467 154.016 718.467Z" stroke="white" stroke-width="10" mask="url(#path-1-inside-1_70_943)"/>
<path fill-rule="evenodd" clip-rule="evenodd" d="M559.423 83.7473C536.357 152.266 499.876 175.435 520.529 180.012C554.578 187.571 573.179 197.446 574.984 223.197C578.442 272.365 529.079 307.061 466.208 301.972C403.336 296.882 350.041 249.025 346.525 205.517C343.295 165.598 366.628 141.347 392.43 145.791C400.277 147.139 408.276 149.342 416.484 151.051C471.661 164.174 445.688 90.546 457.202 39.8593C469.666 -15.0813 585.168 7.30895 559.442 83.7473H559.423Z" stroke="white" stroke-width="10" mask="url(#path-1-inside-1_70_943)"/>
<path fill-rule="evenodd" clip-rule="evenodd" d="M1175.98 282.322C1152.17 281.049 1135.78 300.743 1135.78 300.743C1135.78 300.743 1121.39 288.057 1102.66 283.689C1074.94 277.232 1056.49 296.071 1056.49 296.071C1054.21 271.991 1103.04 240.732 1133.91 278.656C1136.92 266.73 1157.83 257.121 1174.73 258.792C1171.97 225.919 1164.58 192.97 1151.6 161.141C1129.39 163.382 1116.79 183.721 1116.79 183.721C1116.79 183.721 1101.52 173.637 1083.3 171.985C1056.26 169.516 1041.4 189.722 1041.4 189.722C1036.01 167.199 1077.96 131.496 1112.08 163.135C1112.88 155.539 1123.25 143.536 1142.01 139.757C1127.51 110.644 1106.55 79.7269 1081 52.2851C1067.18 59.7295 1061.48 74.4474 1061.48 74.4474C1037.89 64.4202 1008.25 68.8261 997.283 91.5202C988.999 72.9471 1019.44 35.4211 1054.07 57.3936C1054.07 57.3936 1053.3 47.1385 1066.65 37.7001C1052.23 23.7987 1037.03 11.2837 1021.2 0.0601024H958.884C944.063 3.99122 933.841 14.3033 931.314 24.7103C931.314 24.7103 923.201 15.9555 930.06 0.0601024H765.632C848.758 35.4591 917.957 93.8751 949.117 175.593C1026.68 379.004 926.868 536.477 859.322 613.2C845.072 632.457 860.12 664.684 900.002 657.753C972.564 638.458 1024.95 598.007 1071.29 561.051C1107.69 531.995 1125.02 502.863 1128.57 471.908C1134.26 422.342 1072.16 413.948 1034.71 437.591C1076.76 392.697 1136.5 407.927 1146.17 438.598C1165.47 391.5 1176.99 337.509 1176 282.379L1175.98 282.322ZM1017.82 535.432C1008.49 535.432 1000.93 527.798 1000.93 518.379C1000.93 508.959 1008.49 501.325 1017.82 501.325C1027.15 501.325 1034.71 508.959 1034.71 518.379C1034.71 527.798 1027.15 535.432 1017.82 535.432Z" stroke="white" stroke-width="10" mask="url(#path-1-inside-1_70_943)"/>
<path fill-rule="evenodd" clip-rule="evenodd" d="M416.029 1403.98C400.829 1335.69 361.403 1275.07 303.833 1232.09C242.139 1185.96 166.955 1165.6 92.2083 1174.76C66.767 1177.87 47.9378 1196.79 43.8718 1220.39L17.7465 1213.02C10.1654 1210.88 3.0593 1217.81 4.95933 1225.5L14.1934 1262.8C16.0744 1270.51 25.5746 1273.17 31.2366 1267.64L47.3108 1251.96C57.3999 1277.18 83.8862 1293.77 111.664 1290.34C191.807 1280.54 268.359 1329.95 295.074 1404H416.01L416.029 1403.98Z" stroke="white" stroke-width="10" mask="url(#path-1-inside-1_70_943)"/>
<path fill-rule="evenodd" clip-rule="evenodd" d="M1355.53 1105.75C1346.01 1104.78 1339.02 1096.99 1339.89 1088.33C1340.77 1079.67 1349.2 1073.46 1358.72 1074.43C1368.24 1075.4 1375.23 1083.19 1374.34 1091.87C1373.49 1100.49 1365.03 1106.72 1355.53 1105.77V1105.75ZM1231.73 1401.8C1322.72 1387.82 1393 1308.72 1393 1214.01V918.536C1382.44 869.995 1353.61 886.783 1343.69 917.491C1324.56 961.854 1299.01 1053.92 1279.53 1105.8C1230.38 1236.8 1156.66 1305.04 1093.84 1354.17C1057.13 1382.88 1063.8 1404.7 1102.03 1403.3C1158.08 1401.25 1199.81 1401.23 1231.73 1401.8ZM1327.15 1341.31C1313.39 1356.94 1290.72 1359.5 1276.49 1347.05C1262.26 1334.55 1261.88 1311.74 1275.62 1296.09C1289.37 1280.44 1312.04 1277.9 1326.25 1290.38C1340.5 1302.85 1340.86 1325.64 1327.15 1341.31ZM1189.94 1373.41C1176.61 1372.04 1166.8 1361.12 1168.04 1349C1169.27 1336.89 1181.05 1328.19 1194.37 1329.52C1207.71 1330.9 1217.51 1341.79 1216.28 1353.9C1215.06 1366.02 1203.24 1374.73 1189.93 1373.39L1189.94 1373.41ZM1297.77 1169.27C1308.41 1163.33 1322.3 1168 1328.84 1179.68C1335.35 1191.4 1332.03 1205.66 1321.39 1211.6C1310.77 1217.53 1296.84 1212.86 1290.32 1201.18C1283.79 1189.48 1287.13 1175.2 1297.77 1169.27Z" stroke="white" stroke-width="10" mask="url(#path-1-inside-1_70_943)"/>
<path fill-rule="evenodd" clip-rule="evenodd" d="M915.962 449.991C924.93 438.749 910.908 407.983 907.374 400.425C903.308 391.727 873.743 351.239 878.93 344.706L878.949 344.687C884.231 338.211 909.692 359.082 916.513 352.112C916.665 351.998 916.779 351.846 916.874 351.732C922.745 344.383 906.614 324.139 897.798 319.144C888.81 314.035 859.227 290.316 863.236 282.15C863.369 281.922 863.502 281.694 863.692 281.466C866.143 278.409 872.66 280.612 879.367 282.644C886.074 284.638 892.952 286.442 896.126 282.454C896.335 282.188 896.506 281.922 896.677 281.618C902.434 271.553 890.102 252.049 880.032 243.845C869.962 235.622 831.335 207.535 835.8 195.798C836.142 194.944 836.579 194.203 837.054 193.595C839.866 190.082 844.844 191.012 850.145 191.582C855.427 192.133 861.051 192.342 865.041 187.328C865.364 186.91 865.687 186.455 865.991 185.999C874.389 172.686 856.396 150.79 846.364 142.624C836.275 134.439 782.105 100.198 774.049 87.9489C767.304 77.6558 742.775 18.7841 735.042 0.0400683H722.179C727.594 14.0933 754.289 84.6825 750.66 102.515C748.646 112.447 742.186 136.85 738.766 160.437C735.346 184.024 735.023 206.87 745.283 213.65C765.803 227.133 757.728 214.903 770.173 222.006C782.618 229.108 768.501 281.029 782.39 288.322C796.279 295.69 799.015 285.872 804.753 287.505C810.454 289.138 816.8 309.174 818.035 328.393C819.27 347.592 829.397 372.66 838.555 370.457C839.771 370.173 840.626 369.603 841.253 368.824C843.02 366.602 842.887 362.728 842.678 358.892C842.488 355.018 842.298 351.22 843.951 349.15C844.578 348.352 845.452 347.801 846.706 347.611C855.769 346.13 867.435 388.233 874.94 410.661C882.407 433.051 890.976 458.613 910.186 453.581C912.694 452.916 914.613 451.7 915.981 450.01L915.962 449.991Z" stroke="white" stroke-width="10" mask="url(#path-1-inside-1_70_943)"/>
<path fill-rule="evenodd" clip-rule="evenodd" d="M984.951 1271.19C985.882 1268.86 987.117 1266.62 988.713 1264.51C998.498 1251.4 1017.06 1248.73 1030.17 1258.51C1041.17 1266.73 1044.82 1281.11 1039.94 1293.24C1039.01 1295.58 1037.75 1297.84 1036.18 1299.93C1026.41 1313.03 1007.83 1315.73 994.717 1305.93C983.735 1297.7 980.068 1283.33 984.97 1271.19H984.951ZM1041.15 1226.51C1042.1 1224.19 1043.36 1221.93 1044.92 1219.82C1054.72 1206.72 1073.26 1204.04 1086.37 1213.82C1097.38 1222.02 1101.02 1236.42 1096.14 1248.55C1095.21 1250.89 1093.96 1253.13 1092.38 1255.22C1082.59 1268.32 1064.03 1271.02 1050.92 1261.22C1039.92 1253.02 1036.27 1238.62 1041.15 1226.49V1226.51ZM1090.63 1171.32C1091.56 1168.98 1092.83 1166.74 1094.39 1164.61C1104.2 1151.51 1122.74 1148.83 1135.85 1158.61C1146.85 1166.82 1150.52 1181.19 1145.62 1193.35C1144.69 1195.68 1143.43 1197.93 1141.85 1200.03C1132.07 1213.14 1113.51 1215.81 1100.4 1206.02C1089.41 1197.79 1085.75 1183.42 1090.63 1171.28V1171.32ZM1133.97 1113.34C1134.9 1111 1136.15 1108.74 1137.73 1106.64C1147.52 1093.55 1166.08 1090.87 1179.17 1100.65C1190.15 1108.88 1193.84 1123.25 1188.96 1135.39C1188.01 1137.72 1186.75 1139.98 1185.18 1142.07C1175.37 1155.16 1156.83 1157.87 1143.72 1148.07C1132.73 1139.85 1129.07 1125.47 1133.97 1113.34ZM1176.83 1055.97C1177.77 1053.63 1179.04 1051.39 1180.6 1049.26C1190.38 1036.18 1208.94 1033.5 1222.05 1043.26C1233.04 1051.49 1236.7 1065.86 1231.84 1078C1230.89 1080.33 1229.64 1082.57 1228.06 1084.7C1218.27 1097.8 1199.71 1100.46 1186.6 1090.7C1175.6 1082.5 1171.95 1068.1 1176.83 1055.97ZM1207.75 985.132C1207.65 985.379 1207.56 985.645 1207.44 985.892C1192.91 1022.03 1044.02 1200.09 996.313 1243.29C948.281 1286.8 906.423 1268.32 848.321 1321.63C890.862 1319.66 980.41 1339.07 1029.24 1326.27C1077.27 1313.67 1210.56 1156.28 1242.4 1077.09C1242.94 1075.78 1243.41 1074.54 1243.89 1073.29C1253.84 1046.55 1248.03 1018.9 1237.58 982.815C1223.12 932.926 1229.94 924.969 1207.73 985.151L1207.75 985.132Z" stroke="white" stroke-width="10" mask="url(#path-1-inside-1_70_943)"/>
<path fill-rule="evenodd" clip-rule="evenodd" d="M421.234 446.149C401.987 450.535 383.633 450.346 364.12 450.82C363.056 450.744 361.973 450.668 360.89 450.592H360.871C359.807 450.516 358.743 450.422 357.698 450.308H357.622C356.558 450.213 355.513 450.099 354.468 449.985H354.354C353.328 449.871 352.302 449.738 351.275 449.624C350.439 449.51 349.623 449.415 348.805 449.301L348.026 449.206C347.285 449.111 346.544 448.997 345.784 448.883L344.796 448.731C344.055 448.617 343.314 448.503 342.573 448.37L341.604 448.219C340.749 448.067 339.875 447.934 339.02 447.763L338.45 447.649C337.69 447.516 336.911 447.364 336.17 447.231L335.22 447.06C334.365 446.889 333.491 446.699 332.636 446.528L332.123 446.414C331.211 446.225 330.318 446.035 329.406 445.826L328.95 445.731C328.057 445.522 327.164 445.313 326.252 445.104L325.777 444.99C324.827 444.762 323.877 444.534 322.908 444.287L322.68 444.23C268.891 430.633 219.908 398.026 191.845 349.447V349.409L191.769 349.333V349.276L191.731 349.238V349.2L191.712 349.181L191.541 348.877L191.522 348.839V348.801L191.503 348.763L191.484 348.744C191.294 348.421 191.123 348.08 190.952 347.776L190.933 347.738L190.914 347.719V347.7H190.895V347.643H190.876L190.857 347.605L190.705 347.32L190.42 346.788V346.731C190.154 346.2 189.907 345.668 189.679 345.155V345.098L189.66 345.079V345.041L189.565 344.794L189.546 344.775L189.527 344.756V344.68L189.489 344.585L189.47 344.566V344.509L189.451 344.49V344.471C189.261 343.997 189.071 343.522 188.9 343.066V343.047L188.881 343.028V342.99L188.862 342.952V342.876L188.843 342.857V342.819L188.824 342.8V342.781C185.119 332.45 187.551 323.202 193.099 315.092C192.586 308.636 193.004 302.331 193.631 297.222L193.669 296.918L193.688 296.785L193.745 296.348L193.764 296.177L193.802 295.912L193.821 295.836L193.916 295.152V295.076L193.973 294.677L194.144 293.519V293.5L194.182 293.215V293.139L194.22 292.911L194.239 292.778L194.258 292.626L194.296 292.417L194.315 292.322L194.353 292.056V292.037L194.41 291.753V291.715L194.448 291.468L194.467 291.354L194.505 291.183L194.524 291.031L194.543 290.917L194.581 290.708V290.651L194.619 290.404C195.208 287.29 195.075 284.08 194.22 281.004C194.049 280.339 193.859 279.693 193.688 279.067C193.517 278.421 193.346 277.775 193.194 277.13L192.719 275.25C192.567 274.623 192.415 273.996 192.263 273.388L191.826 271.546C191.693 270.939 191.541 270.331 191.408 269.742C191.294 269.134 191.161 268.546 191.028 267.957L190.667 266.191L190.325 264.463C190.211 263.893 190.116 263.323 190.002 262.754L189.698 261.063L189.413 259.411L189.166 257.778L188.919 256.164C188.843 255.632 188.767 255.119 188.691 254.606L188.482 253.049L188.292 251.53L188.121 250.03L187.969 248.567L187.836 247.143L187.703 245.738L187.513 243.022L187.418 241.712L187.304 239.148L187.228 236.736L187.19 234.419V232.235L187.228 230.165L187.266 229.178L187.342 227.298L187.399 226.405L187.456 225.531L187.57 223.898L187.646 223.139L187.722 222.398L187.798 221.695L187.874 221.031L187.95 220.385L188.026 219.777L188.102 219.207L188.178 218.657L188.254 218.163L188.33 217.688L188.387 217.251L188.463 216.853L188.52 216.473L188.577 216.131L188.653 215.846L188.691 215.561L188.748 215.352L188.786 215.143L188.824 214.991L188.843 214.859L188.862 214.764V214.707L188.9 214.669H188.919V214.65L188.957 214.631H188.976L188.995 214.612L189.166 214.479H189.185V214.46L189.242 214.403L189.28 214.384L189.299 214.365V214.346L189.337 214.327L189.356 214.308H189.375V214.289L189.413 214.251L189.451 214.232V214.213L189.489 214.175H189.508L189.527 214.156H189.546L189.565 214.137H189.603L189.622 214.118L189.66 214.099H189.679L189.698 214.08L189.736 214.061L189.755 214.042H189.774V214.023H189.793V214.004H189.812L189.831 213.985H189.85L189.888 213.947H189.907L189.926 213.928H189.945L189.964 213.909H189.983L190.04 213.852L190.116 213.795L190.192 213.757C197.545 208.611 203.853 211.725 203.853 211.725C193.954 245.491 209.914 285.771 221.067 284.384C228.059 283.53 231.175 286.435 232.543 288.733C240.922 286.701 250.194 286.359 256.407 291.734C270.43 303.831 282.21 360.443 345.708 374.667C409.207 388.891 473.922 367.355 510.155 337.388C544.147 309.3 585.263 303.679 592.464 309.547C592.578 309.623 592.673 309.737 592.787 309.832C592.939 309.984 593.072 310.136 593.186 310.326V310.345C593.281 310.497 593.357 310.668 593.414 310.838C593.414 310.857 593.414 310.876 593.433 310.876C593.433 310.895 593.433 310.914 593.433 310.914C593.547 311.199 593.604 311.484 593.661 311.75C593.775 312.339 593.756 312.87 593.661 313.364V313.402C593.623 313.516 593.585 313.649 593.566 313.763V313.782L593.509 313.953C593.433 314.105 593.395 314.257 593.319 314.409L593.281 314.485V314.504L593.243 314.58L593.205 314.637V314.675L593.129 314.808L593.11 314.846L593.053 314.922L593.015 314.978V314.997L592.939 315.111L592.92 315.149H592.901L592.806 315.263L592.73 315.339L592.673 315.415L592.521 315.567V315.586L592.312 315.795L592.255 315.871L592.16 315.966L592.084 316.023L591.951 316.156V316.175L591.761 316.327L591.685 316.384L591.628 316.422L591.609 316.46L591.514 316.536L591.476 316.555L591.324 316.707L591.267 316.745L591.172 316.821C591.172 316.821 591.172 316.821 591.153 316.821L591.039 316.897L591.001 316.935L590.982 316.954L590.906 316.992L590.849 317.029L590.83 317.048L590.659 317.162L590.64 317.181L590.469 317.295L590.355 317.352L590.298 317.409H590.279L589.975 317.561L589.899 317.618L589.842 317.656L589.766 317.713L589.709 317.732L589.69 317.751L589.614 317.789L589.5 317.827L589.462 317.865L589.386 317.903L589.329 317.941H589.31L588.74 318.226L588.721 318.245L588.569 318.321L588.55 318.34L588.493 318.359L588.417 318.397L588.36 318.435L588.284 318.492L588.208 318.53H588.17L588.113 318.549L588.056 318.587L587.98 318.606H587.961L587.904 318.644L587.79 318.701L587.6 318.796L587.524 318.815L587.448 318.853L587.391 318.872L587.296 318.929L587.22 318.967H587.201L587.163 319.005L587.087 319.024L587.03 319.043L586.84 319.137L586.783 319.156L586.707 319.194L586.65 319.213H586.631L586.574 319.232L586.498 319.27L586.479 319.289H586.422L586.232 319.403V319.422H586.194V319.441H586.156L586.137 319.46H586.118L586.08 319.479V319.498H586.004L585.871 319.555L585.757 319.631C523.968 384.58 503.961 427.443 421.405 446.282L421.234 446.149Z" stroke="white" stroke-width="10" mask="url(#path-1-inside-1_70_943)"/>
<path fill-rule="evenodd" clip-rule="evenodd" d="M709.107 407.11C709.107 407.11 849.974 344.535 886.265 507.838C886.265 507.838 734.795 538.47 709.107 407.11Z" stroke="white" stroke-width="10" mask="url(#path-1-inside-1_70_943)"/>
<path fill-rule="evenodd" clip-rule="evenodd" d="M136.592 744.82C136.592 744.82 196.652 666.274 102.373 578.897C8.11301 491.52 159.716 509.276 180.768 596.312C201.82 683.366 136.592 744.82 136.592 744.82Z" stroke="white" stroke-width="10" mask="url(#path-1-inside-1_70_943)"/>
<path fill-rule="evenodd" clip-rule="evenodd" d="M67.6599 407.11C67.6599 407.11 208.527 344.535 244.837 507.838C244.837 507.838 93.3482 538.47 67.6599 407.11Z" stroke="white" stroke-width="10" mask="url(#path-1-inside-1_70_943)"/>
<path fill-rule="evenodd" clip-rule="evenodd" d="M54.6446 1346.22C54.6446 1346.22 189.223 1244.45 271.456 1403.99H188.976C137.201 1403.99 90.118 1382.89 55.8986 1348.88L54.6446 1346.22Z" stroke="white" stroke-width="10" mask="url(#path-1-inside-1_70_943)"/>
<path fill-rule="evenodd" clip-rule="evenodd" d="M0 1007.33C21.5842 1035.99 52.3646 1095.54 0 1157.76V1007.33Z" stroke="white" stroke-width="10" mask="url(#path-1-inside-1_70_943)"/>
<path fill-rule="evenodd" clip-rule="evenodd" d="M542.95 1201.99C564.382 1201.99 581.767 1217.43 581.767 1236.48C581.767 1255.53 564.382 1270.97 542.95 1270.97C521.518 1270.97 504.133 1255.53 504.133 1236.48C504.133 1217.43 521.518 1201.99 542.95 1201.99Z" stroke="white" stroke-width="10" mask="url(#path-1-inside-1_70_943)"/>
<path fill-rule="evenodd" clip-rule="evenodd" d="M1004.56 654.352C1025.99 654.352 1043.38 669.792 1043.38 688.84C1043.38 707.888 1025.99 723.327 1004.56 723.327C983.128 723.327 965.743 707.888 965.743 688.84C965.743 669.792 983.128 654.352 1004.56 654.352Z" stroke="white" stroke-width="10" mask="url(#path-1-inside-1_70_943)"/>
</svg>
