<svg width="1119" height="1128" viewBox="0 0 1119 1128" fill="none" xmlns="http://www.w3.org/2000/svg">
<path fill-rule="evenodd" clip-rule="evenodd" d="M459.749 452.57C438.152 469.725 385.19 580.214 320.887 610.528C303.976 618.502 288.545 618.868 294.803 592.092C307.074 539.684 403.918 499.81 422.966 420.823C343.339 386.758 284.378 478.035 247.549 509.233C231.66 522.682 215.039 511.627 220.869 489.242C230.027 454.11 272.992 430.308 304.861 407.771C364.829 365.35 382.687 373.63 450.118 387.643C539.147 280.752 493.847 67.9465 495.678 0H524.815C596.841 51.89 595.604 280.569 476.096 404.873C500.394 458.7 525.029 488.434 489.039 552.996C412.266 690.703 342.698 674.51 370.599 633.888C390.73 604.566 491.298 548.619 459.734 452.555L459.749 452.57Z" fill="#F15A28"/>
<path fill-rule="evenodd" clip-rule="evenodd" d="M976.2 227.263C992.348 221.636 1052.29 162.213 1069.2 151.463L1114.65 121.256L1115.58 120.646C1100.79 51.9375 1039.33 0.0322266 966.31 0.0322266H874.351C909.318 56.6492 1005.09 157.578 976.185 227.278L976.2 227.263Z" fill="#017D3A"/>
<path fill-rule="evenodd" clip-rule="evenodd" d="M84.0984 147.027C119.692 155.795 150.202 160.4 190.45 161.894C189.214 138.686 169.998 88.0771 161.481 68.2695C150.828 43.4605 143.776 28.6849 131.062 6.33082C129.918 4.31804 128.727 2.48824 127.46 0.826172C115.479 2.07653 103.91 4.72974 92.9051 8.60282C48.5359 27.4192 14.7896 66.7904 3.83081 114.579C13.1259 128.958 34.7077 134.859 84.1137 147.012L84.0984 147.027Z" fill="#C50003"/>
<path fill-rule="evenodd" clip-rule="evenodd" d="M15.2934 333.359C50.9018 305.164 120.363 242.662 125.461 232.216C126.743 221.268 25.9012 99.7543 0 215.687V337.979C3.31205 340.053 8.16566 338.985 15.2782 333.343L15.2934 333.359Z" fill="#7FB53B"/>
<path fill-rule="evenodd" clip-rule="evenodd" d="M280.853 76.7299C320.078 30.5733 301.427 8.37171 269.024 0.015625H192.801C168.182 5.59651 157.223 15.8739 187.52 24.5349C241.826 40.0577 221.938 146.034 280.853 76.7452V76.7299Z" fill="#7FB53B"/>
<path fill-rule="evenodd" clip-rule="evenodd" d="M838.33 1127.29C838.697 1092.97 814.764 1082.83 775.401 1086C761.68 1087.09 742.678 1093.22 730.849 1100.7C716.609 1109.66 713.663 1116.81 715.8 1127.29H838.346H838.33Z" fill="#F25D31"/>
<path fill-rule="evenodd" clip-rule="evenodd" d="M123.751 858.419C130.895 847.029 143.868 859.685 168.136 848.691C187.703 839.816 177.34 843.949 198.769 843.156C232.759 891.005 324.733 914.091 344.056 928.226C384.152 957.594 355.381 977.646 355.229 977.829C314.019 1031.2 183.338 897.272 123.751 858.435V858.419Z" fill="#990539"/>
<path fill-rule="evenodd" clip-rule="evenodd" d="M198.784 843.136C139.457 845.347 128.269 897.023 71.5067 909.024C45.7277 872.107 18.7734 791.017 0 703.263V392.182C3.92257 388.08 8.3946 385.137 13.4008 383.49C34.2347 416.289 56.3354 703.049 198.769 843.136H198.784Z" fill="#F15A28"/>
<path fill-rule="evenodd" clip-rule="evenodd" d="M487.009 1051.9C541.986 1096.63 647.193 1044.14 715.983 1004.76C913.943 891.385 907.304 741.707 980.398 723.013C1021.93 712.37 1054.91 712.278 1087.59 660.968C1123.59 604.457 1118.79 508.881 1075.42 436.421C1002.59 314.724 927.161 391.362 893.384 482.593C883.28 509.841 868.551 559.063 865.041 590.337C851.151 714.565 944.286 684.069 880.929 758.847C695.592 977.66 573.931 961.939 486.994 1051.89L487.009 1051.9Z" fill="#F15A28"/>
<path fill-rule="evenodd" clip-rule="evenodd" d="M598.917 1101.6C622.986 1104.73 689.685 1089.98 699.179 1127.31H417.12H354.191C351.902 1106.24 347.689 1077.53 346.163 1054.38C341.599 984.664 408.069 1076.84 598.917 1101.6Z" fill="#004C30"/>
<path fill-rule="evenodd" clip-rule="evenodd" d="M1119 447.084C1075.55 363.432 1031.44 299.618 949.23 308.797C981.649 277.843 1048.1 218.664 1105 180.178L1119 170.724V447.099V447.084Z" fill="#86B845"/>
<path fill-rule="evenodd" clip-rule="evenodd" d="M154.491 732.375C164.794 741.921 171.143 731.872 184.88 725.3C199.578 718.255 213.666 712.781 217.664 716.395C221.953 720.268 199.944 731.369 192.114 744.803C185.017 756.925 187.505 765.891 198.052 775.254C229.432 803.402 266.094 831.855 303.503 857.594C323.391 871.242 349.963 893.733 365.379 893.093C373.896 892.727 382.305 882.846 387.464 878.881C393.096 874.535 404.162 879.644 392.7 892.483C386.854 899.024 385.801 907.319 388.93 909.561C402.056 918.923 410.252 922.064 422.233 927.828C477.912 954.62 522.526 965.187 536.018 945.989C546.428 931.183 549.434 913.632 507.873 870.83C469.411 831.23 439.282 803.783 391.555 750.719C387.113 745.84 381.71 740.213 377.742 737.438C365.486 728.853 341.126 744.04 332.548 754.226C323.955 764.412 319.651 751.527 324.596 743.842C329.526 736.157 349.902 721.717 351.642 712.903C352.894 706.606 349.902 703.327 346.331 699.027C329.999 679.387 317.27 667.082 264.598 596.635C199.578 509.674 46.8267 632.85 154.522 732.375H154.491Z" fill="#F7931E"/>
<path fill-rule="evenodd" clip-rule="evenodd" d="M475.043 750.082C468.968 772.512 479.484 816.214 521.488 830.974C545.741 839.498 533.545 847.229 548.015 874.158C569.169 913.544 604.945 912.858 624.268 903.236C668.271 881.324 662.288 854.823 669.736 849.379C687.609 836.296 708.596 854.38 734.589 833.643C761.115 812.478 749.348 789.392 766.366 778.657C779.126 770.606 811.407 788.569 829.386 757.325C847.336 726.142 814.49 708.302 825.754 698.893C835.69 690.583 852.861 654.612 826.227 628.522C803.317 606.092 782.59 617.437 772.547 621.02C749.012 629.452 743.548 669.784 720.028 662.892C696.508 656.015 699.865 649.26 670.759 649.794C623.368 650.663 632.693 692.276 601.801 671.675C583.287 659.324 571.657 659.949 562.591 659.171C555.265 658.531 546.931 651.715 543.512 647.034C497.052 605.36 406.604 670.425 430.277 719.402C453.308 741.65 481.163 727.636 475.073 750.067L475.043 750.082Z" fill="#009245"/>
<path fill-rule="evenodd" clip-rule="evenodd" d="M549.083 561.975C559.034 550.173 565.689 575.607 564.88 598.16C564.422 607.705 564.437 626.201 565.109 645.079C573.427 645.628 583.989 646.146 599.618 656.012C598.474 637.363 598.626 614.597 602.244 590.185C604.457 575.333 613.202 586.205 617.079 599.074C622.162 615.939 626.786 634.085 632.098 652.352C638.249 645.887 646.308 638.507 661.937 636.219C660.136 630.013 658.457 623.411 657.068 616.29C649.04 575.638 683.976 606.988 683.976 606.988L731.337 648.128C743.975 642.715 751.057 621.413 764.824 611.014C742.891 607.065 719.585 595.095 700.064 576.263C688.342 564.949 657.831 524.51 647.132 452.919C644.98 438.525 616.728 434.85 604.09 436.253C598.367 436.893 592.46 438.632 587.393 441.361C599.847 469.006 594.398 498.984 571.947 515.986C571.474 516.337 571 516.703 570.527 517.054C557.539 526.553 542.276 533.354 528.814 539.347C523.289 541.802 517.947 544.18 513.368 546.468C490.595 557.904 509.064 609.474 549.083 562.006V561.975Z" fill="#8CC63F"/>
<path fill-rule="evenodd" clip-rule="evenodd" d="M123.721 576.877C123.721 576.877 180.316 557.13 161.741 481.544C143.181 405.943 213.986 465.412 195.609 516.463C177.233 567.514 123.721 576.877 123.721 576.877Z" fill="#7FB53B"/>
<path fill-rule="evenodd" clip-rule="evenodd" d="M449.386 67.2429C430.856 122.259 401.552 140.862 418.142 144.537C445.494 150.606 460.436 158.535 461.886 179.211C464.664 218.689 425.011 246.548 374.506 242.461C324.001 238.375 281.188 199.949 278.365 165.015C275.77 132.963 294.513 113.491 315.24 117.059C321.543 118.142 327.969 119.911 334.563 121.283C378.886 131.82 358.022 72.7018 367.271 32.0041C377.284 -12.1093 470.067 5.86845 449.401 67.2429H449.386Z" fill="#990539"/>
<path fill-rule="evenodd" clip-rule="evenodd" d="M944.667 226.684C925.543 225.662 912.371 241.475 912.371 241.475C912.371 241.475 900.817 231.289 885.768 227.782C863.499 222.597 848.679 237.723 848.679 237.723C846.847 218.389 886.073 193.29 910.875 223.741C913.287 214.165 930.091 206.449 943.66 207.791C941.447 181.396 935.509 154.94 925.085 129.384C907.243 131.183 897.123 147.514 897.123 147.514C897.123 147.514 884.852 139.418 870.215 138.091C848.496 136.109 836.56 152.333 836.56 152.333C832.225 134.248 865.926 105.581 893.338 130.985C893.979 124.886 902.313 115.249 917.377 112.215C905.732 88.8388 888.897 64.0146 868.368 41.9807C857.272 47.9581 852.693 59.7755 852.693 59.7755C833.736 51.7244 809.926 55.262 801.12 73.4838C794.465 58.5709 818.916 28.4402 846.74 46.0825C846.74 46.0825 846.115 37.8484 856.844 30.27C845.26 19.1083 833.05 9.05961 820.336 0.0478516H770.273C758.368 3.20425 750.157 11.4841 748.127 19.8402C748.127 19.8402 741.609 12.8107 747.119 0.0478516H615.034C681.809 28.4707 737.397 75.3746 762.428 140.988C824.731 304.313 744.555 430.752 690.296 492.355C678.848 507.817 690.937 533.693 722.973 528.128C781.263 512.635 823.342 480.157 860.569 450.483C889.812 427.153 903.732 403.762 906.586 378.908C911.15 339.11 861.271 332.37 831.188 351.354C864.964 315.307 912.951 327.536 920.72 352.162C936.227 314.346 945.476 270.995 944.682 226.729L944.667 226.684ZM817.619 429.913C810.125 429.913 804.05 423.784 804.05 416.22C804.05 408.657 810.125 402.527 817.619 402.527C825.113 402.527 831.188 408.657 831.188 416.22C831.188 423.784 825.113 429.913 817.619 429.913Z" fill="#990539"/>
<path fill-rule="evenodd" clip-rule="evenodd" d="M334.197 1127.29C321.987 1072.46 290.316 1023.79 244.069 989.281C194.511 952.243 134.115 935.897 74.0711 943.246C53.6341 945.747 38.5086 960.934 35.2423 979.888L14.2558 973.972C8.1659 972.249 2.45757 977.814 3.98386 983.99L11.4016 1013.94C12.9127 1020.13 20.5441 1022.26 25.0925 1017.83L38.0049 1005.23C46.1095 1025.48 67.386 1038.81 89.7004 1036.05C154.079 1028.18 215.574 1067.86 237.033 1127.31H334.182L334.197 1127.29Z" fill="#F15A28"/>
<path fill-rule="evenodd" clip-rule="evenodd" d="M1088.9 887.836C1081.25 887.059 1075.64 880.807 1076.34 873.854C1077.04 866.901 1083.82 861.914 1091.47 862.692C1099.11 863.47 1104.73 869.721 1104.01 876.69C1103.32 883.613 1096.53 888.614 1088.9 887.852V887.836ZM989.448 1125.54C1062.54 1114.32 1119 1050.81 1119 974.767V737.518C1110.51 698.544 1087.36 712.023 1079.39 736.68C1064.02 772.3 1043.49 846.224 1027.85 887.882C988.365 993.065 929.145 1047.85 878.685 1087.3C849.197 1110.36 854.555 1127.88 885.264 1126.75C930.289 1125.1 963.807 1125.09 989.448 1125.54ZM1066.1 1076.98C1055.05 1089.53 1036.84 1091.58 1025.41 1081.58C1013.98 1071.55 1013.67 1053.23 1024.71 1040.67C1035.76 1028.11 1053.96 1026.06 1065.38 1036.08C1076.83 1046.1 1077.12 1064.4 1066.1 1076.98ZM955.885 1102.75C945.171 1101.65 937.295 1092.88 938.287 1083.15C939.279 1073.42 948.742 1066.44 959.441 1067.51C970.156 1068.62 978.032 1077.36 977.04 1087.09C976.063 1096.81 966.569 1103.81 955.87 1102.73L955.885 1102.75ZM1042.5 938.842C1051.05 934.069 1062.21 937.82 1067.46 947.198C1072.69 956.606 1070.02 968.058 1061.47 972.831C1052.94 977.588 1041.75 973.837 1036.52 964.459C1031.27 955.066 1033.95 943.6 1042.5 938.842Z" fill="#FBB03B"/>
<path fill-rule="evenodd" clip-rule="evenodd" d="M735.794 361.311C742.998 352.284 731.734 327.581 728.895 321.513C725.629 314.529 701.88 282.019 706.047 276.774L706.062 276.759C710.305 271.559 730.757 288.317 736.237 282.721C736.359 282.629 736.45 282.507 736.527 282.416C741.243 276.515 728.285 260.26 721.203 256.25C713.983 252.148 690.219 233.103 693.439 226.546C693.546 226.363 693.653 226.18 693.806 225.997C695.775 223.542 701.01 225.311 706.398 226.943C711.786 228.544 717.311 229.992 719.86 226.79C720.028 226.577 720.165 226.363 720.302 226.119C724.927 218.037 715.021 202.377 706.932 195.79C698.843 189.188 667.813 166.635 671.4 157.212C671.675 156.526 672.026 155.931 672.407 155.443C674.666 152.622 678.665 153.369 682.923 153.827C687.166 154.269 691.684 154.437 694.889 150.411C695.149 150.076 695.408 149.71 695.653 149.344C702.399 138.655 687.945 121.073 679.886 114.517C671.781 107.945 628.267 80.4519 621.795 70.6167C616.377 62.3521 596.673 15.0823 590.461 0.0322266H580.128C584.478 11.316 605.922 67.994 603.007 82.3122C601.389 90.287 596.2 109.881 593.452 128.82C590.705 147.758 590.445 166.102 598.687 171.545C615.171 182.372 608.685 172.552 618.682 178.255C628.679 183.957 617.339 225.646 628.496 231.502C639.653 237.418 641.851 229.535 646.46 230.846C651.039 232.157 656.137 248.244 657.129 263.676C658.121 279.092 666.256 299.22 673.613 297.451C674.59 297.222 675.277 296.765 675.78 296.139C677.2 294.355 677.093 291.245 676.925 288.165C676.772 285.054 676.62 282.004 677.948 280.342C678.451 279.702 679.153 279.259 680.161 279.107C687.441 277.918 696.813 311.723 702.841 329.731C708.84 347.709 715.723 368.233 731.154 364.193C733.169 363.659 734.71 362.683 735.809 361.326L735.794 361.311Z" fill="#86B845"/>
<path fill-rule="evenodd" clip-rule="evenodd" d="M791.214 1020.68C791.961 1018.8 792.954 1017 794.236 1015.31C802.096 1004.79 817.008 1002.64 827.539 1010.49C836.377 1017.09 839.307 1028.64 835.384 1038.38C834.637 1040.25 833.629 1042.07 832.362 1043.75C824.517 1054.27 809.59 1056.43 799.059 1048.57C790.237 1041.96 787.291 1030.42 791.229 1020.68H791.214ZM836.361 984.797C837.124 982.937 838.132 981.122 839.383 979.429C847.259 968.908 862.156 966.758 872.687 974.611C881.524 981.198 884.455 992.756 880.532 1002.5C879.784 1004.38 878.777 1006.17 877.51 1007.85C869.65 1018.37 854.738 1020.54 844.206 1012.67C835.369 1006.08 832.439 994.525 836.361 984.782V984.797ZM876.106 940.485C876.854 938.61 877.876 936.81 879.128 935.102C887.004 924.581 901.9 922.431 912.432 930.284C921.269 936.871 924.215 948.414 920.277 958.173C919.529 960.049 918.521 961.848 917.255 963.541C909.394 974.062 894.482 976.212 883.951 968.344C875.129 961.741 872.183 950.198 876.106 940.455V940.485ZM910.921 893.932C911.668 892.056 912.676 890.242 913.943 888.549C921.803 878.043 936.715 875.893 947.231 883.746C956.053 890.349 959.014 901.892 955.091 911.635C954.328 913.511 953.321 915.325 952.054 917.003C944.178 927.509 929.282 929.689 918.75 921.821C909.928 915.219 906.983 903.676 910.921 893.932ZM945.354 847.867C946.102 845.991 947.124 844.192 948.376 842.484C956.236 831.978 971.148 829.828 981.679 837.666C990.501 844.268 993.447 855.811 989.54 865.555C988.777 867.43 987.769 869.23 986.503 870.938C978.642 881.459 963.73 883.594 953.199 875.756C944.362 869.169 941.431 857.611 945.354 847.867ZM970.186 790.991C970.11 791.189 970.034 791.402 969.942 791.601C958.266 820.618 838.666 963.586 800.341 998.276C761.756 1033.21 728.132 1018.37 681.458 1061.18C715.632 1059.59 787.566 1075.17 826.791 1064.9C865.376 1054.79 972.445 928.409 998.026 864.823C998.453 863.771 998.835 862.78 999.216 861.773C1007.21 840.304 1002.54 818.102 994.149 789.13C982.534 749.073 988.014 742.684 970.171 791.006L970.186 790.991Z" fill="#86B845"/>
<path fill-rule="evenodd" clip-rule="evenodd" d="M338.378 358.225C322.917 361.747 308.173 361.595 292.498 361.976C291.643 361.915 290.773 361.854 289.903 361.793H289.888C289.033 361.732 288.179 361.656 287.339 361.564H287.278C286.423 361.488 285.584 361.397 284.744 361.305H284.653C283.829 361.214 283.004 361.107 282.18 361.016C281.509 360.924 280.852 360.848 280.196 360.756L279.57 360.68C278.975 360.604 278.38 360.512 277.769 360.421L276.976 360.299C276.38 360.207 275.785 360.116 275.19 360.009L274.411 359.887C273.725 359.765 273.023 359.658 272.336 359.521L271.878 359.43C271.267 359.323 270.642 359.201 270.046 359.094L269.283 358.957C268.596 358.82 267.894 358.667 267.207 358.53L266.795 358.439C266.063 358.286 265.345 358.134 264.613 357.966L264.246 357.89C263.529 357.722 262.812 357.554 262.079 357.386L261.697 357.295C260.934 357.112 260.171 356.929 259.393 356.731L259.21 356.685C216 345.767 176.653 319.586 154.109 280.581V280.55L154.094 280.535L154.063 280.504L154.048 280.489V280.459V280.443L154.018 280.413V280.382L154.002 280.367L153.865 280.123L153.85 280.093V280.062L153.834 280.032L153.819 280.016C153.667 279.757 153.529 279.483 153.392 279.239L153.377 279.208L153.361 279.193V279.178H153.346V279.163V279.132H153.331L153.316 279.102L153.193 278.873L152.965 278.446V278.431V278.415V278.4C152.751 277.973 152.552 277.546 152.369 277.135V277.104V277.089L152.354 277.074V277.058V277.043L152.278 276.845L152.262 276.83L152.247 276.814V276.799V276.784V276.769V276.753L152.217 276.677L152.201 276.662V276.647V276.631V276.616L152.186 276.601V276.586C152.033 276.204 151.881 275.823 151.743 275.457V275.442L151.728 275.427V275.411V275.396L151.713 275.366V275.35V275.335V275.32V275.305L151.698 275.289V275.274V275.259L151.682 275.244V275.228C148.706 266.933 150.66 259.507 155.117 252.996C154.704 247.812 155.04 242.75 155.544 238.648L155.574 238.404L155.59 238.297L155.636 237.946L155.651 237.809L155.681 237.596L155.697 237.535L155.773 236.986V236.925L155.803 236.711L155.819 236.604L155.956 235.674V235.659L155.987 235.43V235.369L156.017 235.186L156.032 235.08L156.048 234.958L156.078 234.79L156.093 234.714L156.124 234.5V234.485L156.17 234.256V234.226L156.2 234.028L156.216 233.936L156.246 233.799L156.261 233.677L156.277 233.585L156.307 233.418V233.372L156.338 233.174C156.811 230.673 156.704 228.096 156.017 225.626C155.88 225.092 155.727 224.574 155.59 224.07C155.452 223.552 155.315 223.033 155.193 222.515L154.811 221.005C154.689 220.502 154.567 219.999 154.445 219.511L154.094 218.032C153.987 217.544 153.865 217.056 153.758 216.583C153.667 216.095 153.56 215.623 153.453 215.15L153.163 213.732L152.888 212.344C152.797 211.887 152.72 211.43 152.629 210.972L152.385 209.615L152.156 208.288L151.957 206.977L151.759 205.681C151.698 205.254 151.637 204.842 151.576 204.431L151.408 203.18L151.255 201.96L151.118 200.756L150.996 199.582L150.889 198.438L150.782 197.31L150.706 196.212L150.629 195.129L150.553 194.077L150.507 193.04L150.461 192.018L150.431 191.043L150.4 190.082L150.385 189.136L150.37 188.222V187.337V186.468L150.385 185.629L150.4 184.806L150.431 184.013L150.461 183.251L150.492 182.503L150.538 181.787L150.584 181.085L150.629 180.43L150.675 179.774L150.736 179.164L150.797 178.569L150.858 178.005L150.919 177.471L150.98 176.953L151.041 176.465L151.102 176.008L151.163 175.565L151.225 175.169L151.286 174.788L151.331 174.437L151.392 174.117L151.438 173.812L151.484 173.537L151.545 173.309L151.576 173.08L151.621 172.912L151.652 172.745L151.682 172.623L151.698 172.516L151.713 172.44V172.394L151.728 172.379L151.743 172.363H151.759V172.348L151.789 172.333H151.805L151.82 172.318L151.957 172.211H151.972V172.196L151.988 172.18L152.003 172.165L152.018 172.15L152.049 172.135L152.064 172.119V172.104L152.095 172.089L152.11 172.074H152.125V172.058L152.14 172.043L152.156 172.028L152.186 172.013V171.997L152.201 171.982L152.217 171.967H152.232L152.247 171.952H152.262L152.278 171.936H152.293H152.308L152.323 171.921L152.354 171.906H152.369L152.385 171.891L152.415 171.875L152.43 171.86H152.446V171.845H152.461V171.83H152.476L152.491 171.814H152.507L152.522 171.799L152.537 171.784H152.552L152.568 171.769H152.583L152.598 171.753H152.613L152.659 171.708L152.72 171.662L152.781 171.631C158.688 167.499 163.755 170 163.755 170C155.803 197.111 168.624 229.453 177.584 228.34C183.2 227.654 185.703 229.987 186.802 231.832C193.533 230.2 200.982 229.926 205.973 234.241C217.237 243.954 226.7 289.409 277.708 300.83C328.717 312.251 380.702 294.96 409.809 270.898C437.114 248.346 470.143 243.832 475.928 248.544C476.019 248.605 476.096 248.696 476.187 248.773C476.309 248.895 476.416 249.017 476.508 249.169V249.184C476.584 249.306 476.645 249.444 476.691 249.581C476.691 249.596 476.691 249.611 476.706 249.611C476.706 249.627 476.706 249.642 476.706 249.642C476.798 249.871 476.843 250.099 476.889 250.313C476.981 250.785 476.966 251.212 476.889 251.609V251.639C476.859 251.731 476.828 251.838 476.813 251.929V251.944L476.767 252.082C476.706 252.204 476.676 252.326 476.614 252.447L476.584 252.508V252.524L476.553 252.585L476.523 252.63V252.661L476.462 252.768L476.447 252.798L476.401 252.859L476.37 252.905V252.92L476.309 253.012L476.294 253.042H476.279L476.202 253.134L476.187 253.149L476.141 253.195L476.096 253.256L476.035 253.317L475.973 253.378V253.393L475.867 253.5L475.806 253.561L475.76 253.622L475.745 253.637L475.683 253.698L475.622 253.744L475.561 253.805L475.516 253.85V253.866L475.439 253.927L475.363 253.988L475.302 254.033L475.256 254.064L475.241 254.094L475.165 254.155L475.134 254.171L475.103 254.201L475.042 254.262L475.012 254.293L474.966 254.323L474.89 254.384C474.89 254.384 474.89 254.384 474.875 254.384L474.829 254.415L474.783 254.445L474.752 254.476L474.737 254.491L474.676 254.521L474.63 254.552L474.615 254.567L474.569 254.598L474.523 254.628L474.478 254.658L474.462 254.674L474.325 254.765L474.295 254.78L474.233 254.811L474.188 254.857H474.172L474.111 254.887L474.05 254.918L474.02 254.933L473.989 254.948L473.928 254.979L473.867 255.024L473.821 255.055L473.76 255.101L473.715 255.116L473.699 255.131L473.638 255.162L473.547 255.192L473.516 255.223L473.455 255.253L473.409 255.284H473.394L473.333 255.314L473.272 255.345L473.241 255.36L473.211 255.375L473.15 255.406L473.089 255.436L473.028 255.467L472.967 255.497L472.936 255.512L472.921 255.528L472.86 255.558L472.799 255.589L472.784 255.604L472.738 255.619L472.677 255.65L472.631 255.68L472.57 255.726L472.509 255.756H472.478L472.432 255.772L472.387 255.802L472.326 255.817H472.31L472.265 255.848L472.204 255.878L472.173 255.894L472.142 255.909L472.081 255.939L472.02 255.97L471.959 255.985L471.898 256.016L471.852 256.031L471.776 256.077L471.715 256.107H471.7L471.669 256.138L471.608 256.153L471.562 256.168L471.501 256.199L471.44 256.229L471.41 256.244L471.364 256.26L471.303 256.29L471.257 256.305H471.242L471.196 256.321L471.135 256.351L471.12 256.366H471.105H471.089H471.074L470.921 256.458V256.473H470.906H470.891V256.488H470.876H470.86L470.845 256.504H470.83L470.799 256.519V256.534H470.784H470.769H470.754H470.738L470.631 256.58L470.54 256.641C420.905 308.79 404.833 343.205 338.516 358.332L338.378 358.225Z" fill="#F88C29"/>
<path fill-rule="evenodd" clip-rule="evenodd" d="M569.627 326.88C569.627 326.88 682.786 276.636 711.938 407.757C711.938 407.757 590.262 432.352 569.627 326.88Z" fill="#017D3A"/>
<path fill-rule="evenodd" clip-rule="evenodd" d="M109.725 598.037C109.725 598.037 157.971 534.97 82.2365 464.813C6.5172 394.655 128.3 408.913 145.211 478.796C162.123 548.694 109.725 598.037 109.725 598.037Z" fill="#7FB53B"/>
<path fill-rule="evenodd" clip-rule="evenodd" d="M54.3513 326.88C54.3513 326.88 167.511 276.636 196.678 407.757C196.678 407.757 74.9868 432.352 54.3513 326.88Z" fill="#017D3A"/>
<path fill-rule="evenodd" clip-rule="evenodd" d="M43.8962 1080.92C43.8962 1080.92 152.003 999.205 218.061 1127.31H151.805C110.214 1127.31 72.3921 1110.37 44.9036 1083.06L43.8962 1080.92Z" fill="#017D3A"/>
<path fill-rule="evenodd" clip-rule="evenodd" d="M0 808.813C17.3387 831.823 42.0646 879.642 0 929.595V808.813Z" fill="#7FB53B"/>
<path fill-rule="evenodd" clip-rule="evenodd" d="M436.153 965.113C453.369 965.113 467.335 977.51 467.335 992.804C467.335 1008.1 453.369 1020.5 436.153 1020.5C418.936 1020.5 404.971 1008.1 404.971 992.804C404.971 977.51 418.936 965.113 436.153 965.113Z" fill="#86B845"/>
<path fill-rule="evenodd" clip-rule="evenodd" d="M806.965 525.397C824.182 525.397 838.147 537.794 838.147 553.088C838.147 568.382 824.182 580.779 806.965 580.779C789.749 580.779 775.783 568.382 775.783 553.088C775.783 537.794 789.749 525.397 806.965 525.397Z" fill="#86B845"/>
</svg>
